<svg width="892" height="302" viewBox="0 0 892 302" fill="none" xmlns="http://www.w3.org/2000/svg">
<g opacity="0.6">
<g filter="url(#filter0_f_1730_25359)">
<line x1="70.5005" y1="2" x2="70.5005" y2="300" stroke="url(#paint0_linear_1730_25359)"/>
</g>
<g filter="url(#filter1_f_1730_25359)">
<line x1="128.5" y1="2" x2="128.501" y2="300" stroke="url(#paint1_linear_1730_25359)"/>
</g>
<g filter="url(#filter2_f_1730_25359)">
<line x1="186.5" y1="2" x2="186.501" y2="300" stroke="url(#paint2_linear_1730_25359)"/>
</g>
<g filter="url(#filter3_f_1730_25359)">
<line x1="244.5" y1="2" x2="244.501" y2="300" stroke="url(#paint3_linear_1730_25359)"/>
</g>
<g filter="url(#filter4_f_1730_25359)">
<line x1="302.5" y1="2" x2="302.5" y2="300" stroke="url(#paint4_linear_1730_25359)"/>
</g>
<g filter="url(#filter5_f_1730_25359)">
<line x1="360.5" y1="2" x2="360.5" y2="300" stroke="url(#paint5_linear_1730_25359)"/>
</g>
<g filter="url(#filter6_f_1730_25359)">
<line x1="418.501" y1="2" x2="418.501" y2="300" stroke="url(#paint6_linear_1730_25359)"/>
</g>
<g filter="url(#filter7_f_1730_25359)">
<line x1="476.501" y1="2" x2="476.501" y2="300" stroke="url(#paint7_linear_1730_25359)"/>
</g>
<g filter="url(#filter8_f_1730_25359)">
<line x1="534.501" y1="2" x2="534.501" y2="300" stroke="url(#paint8_linear_1730_25359)"/>
</g>
<g filter="url(#filter9_f_1730_25359)">
<line x1="592.501" y1="2" x2="592.501" y2="300" stroke="url(#paint9_linear_1730_25359)"/>
</g>
<g filter="url(#filter10_f_1730_25359)">
<line x1="650.501" y1="2" x2="650.501" y2="300" stroke="url(#paint10_linear_1730_25359)"/>
</g>
<g filter="url(#filter11_f_1730_25359)">
<line x1="708.501" y1="42" x2="708.501" y2="300" stroke="url(#paint11_linear_1730_25359)"/>
</g>
<g filter="url(#filter12_f_1730_25359)">
<line x1="766.501" y1="130" x2="766.501" y2="300" stroke="url(#paint12_linear_1730_25359)"/>
</g>
<g filter="url(#filter13_f_1730_25359)">
<line x1="824.501" y1="218" x2="824.501" y2="300" stroke="url(#paint13_linear_1730_25359)"/>
</g>
</g>
<line y1="-0.5" x2="13" y2="-0.5" transform="matrix(4.37114e-08 1 1 -4.37114e-08 824.5 213)" stroke="#1B2B38"/>
<line y1="-0.5" x2="13" y2="-0.5" transform="matrix(1 -1.34497e-07 -5.68248e-08 -1 818 219.5)" stroke="#1B2B38"/>
<line y1="-0.5" x2="13" y2="-0.5" transform="matrix(4.37114e-08 1 1 -4.37114e-08 824.5 271)" stroke="#182733"/>
<line y1="-0.5" x2="13" y2="-0.5" transform="matrix(1 -1.34497e-07 -5.68248e-08 -1 818 277.5)" stroke="#182733"/>
<line y1="-0.5" x2="13" y2="-0.5" transform="matrix(4.37114e-08 1 1 -4.37114e-08 766.5 155)" stroke="#1B2B38"/>
<line y1="-0.5" x2="13" y2="-0.5" transform="matrix(1 -1.34497e-07 -5.68248e-08 -1 760 161.5)" stroke="#1B2B38"/>
<line y1="-0.5" x2="13" y2="-0.5" transform="matrix(4.37114e-08 1 1 -4.37114e-08 766.5 213)" stroke="#1B2B38"/>
<line y1="-0.5" x2="13" y2="-0.5" transform="matrix(1 -1.34497e-07 -5.68248e-08 -1 760 219.5)" stroke="#1B2B38"/>
<line y1="-0.5" x2="13" y2="-0.5" transform="matrix(4.37114e-08 1 1 -4.37114e-08 766.5 271)" stroke="#182733"/>
<line y1="-0.5" x2="13" y2="-0.5" transform="matrix(1 -1.34497e-07 -5.68248e-08 -1 760 277.5)" stroke="#182733"/>
<line y1="-0.5" x2="13" y2="-0.5" transform="matrix(4.37114e-08 1 1 -4.37114e-08 708.5 97)" stroke="#1B2B38"/>
<line y1="-0.5" x2="13" y2="-0.5" transform="matrix(1 -1.34497e-07 -5.68248e-08 -1 702 103.5)" stroke="#1B2B38"/>
<line y1="-0.5" x2="13" y2="-0.5" transform="matrix(4.37114e-08 1 1 -4.37114e-08 708.5 155)" stroke="#1B2B38"/>
<line y1="-0.5" x2="13" y2="-0.5" transform="matrix(1 -1.34497e-07 -5.68248e-08 -1 702 161.5)" stroke="#1B2B38"/>
<line y1="-0.5" x2="13" y2="-0.5" transform="matrix(4.37114e-08 1 1 -4.37114e-08 708.5 213)" stroke="#1B2B38"/>
<line y1="-0.5" x2="13" y2="-0.5" transform="matrix(1 -1.34497e-07 -5.68248e-08 -1 702 219.5)" stroke="#1B2B38"/>
<line y1="-0.5" x2="13" y2="-0.5" transform="matrix(4.37114e-08 1 1 -4.37114e-08 708.5 271)" stroke="#182733"/>
<line y1="-0.5" x2="13" y2="-0.5" transform="matrix(1 -1.34497e-07 -5.68248e-08 -1 702 277.5)" stroke="#182733"/>
<line y1="-0.5" x2="13" y2="-0.5" transform="matrix(4.37114e-08 1 1 -4.37114e-08 650.5 39)" stroke="#1B2B38"/>
<line y1="-0.5" x2="13" y2="-0.5" transform="matrix(1 -1.34497e-07 -5.68248e-08 -1 644 45.5)" stroke="#1B2B38"/>
<line y1="-0.5" x2="13" y2="-0.5" transform="matrix(4.37114e-08 1 1 -4.37114e-08 650.5 97)" stroke="#1B2B38"/>
<line y1="-0.5" x2="13" y2="-0.5" transform="matrix(1 -1.34497e-07 -5.68248e-08 -1 644 103.5)" stroke="#1B2B38"/>
<line y1="-0.5" x2="13" y2="-0.5" transform="matrix(4.37114e-08 1 1 -4.37114e-08 650.5 155)" stroke="#1B2B38"/>
<line y1="-0.5" x2="13" y2="-0.5" transform="matrix(1 -1.34497e-07 -5.68248e-08 -1 644 161.5)" stroke="#1B2B38"/>
<line y1="-0.5" x2="13" y2="-0.5" transform="matrix(4.37114e-08 1 1 -4.37114e-08 650.5 213)" stroke="#1B2B38"/>
<line y1="-0.5" x2="13" y2="-0.5" transform="matrix(1 -1.34497e-07 -5.68248e-08 -1 644 219.5)" stroke="#1B2B38"/>
<line y1="-0.5" x2="13" y2="-0.5" transform="matrix(4.37114e-08 1 1 -4.37114e-08 650.5 271)" stroke="#182733"/>
<line y1="-0.5" x2="13" y2="-0.5" transform="matrix(1 -1.34497e-07 -5.68248e-08 -1 644 277.5)" stroke="#182733"/>
<line y1="-0.5" x2="13" y2="-0.5" transform="matrix(4.37114e-08 1 1 -4.37114e-08 592.5 39)" stroke="#1B2B38"/>
<line y1="-0.5" x2="13" y2="-0.5" transform="matrix(1 -1.34497e-07 -5.68248e-08 -1 586 45.5)" stroke="#1B2B38"/>
<line y1="-0.5" x2="13" y2="-0.5" transform="matrix(4.37114e-08 1 1 -4.37114e-08 592.5 97)" stroke="#1B2B38"/>
<line y1="-0.5" x2="13" y2="-0.5" transform="matrix(1 -1.34497e-07 -5.68248e-08 -1 586 103.5)" stroke="#1B2B38"/>
<line y1="-0.5" x2="13" y2="-0.5" transform="matrix(4.37114e-08 1 1 -4.37114e-08 592.5 155)" stroke="#1B2B38"/>
<line y1="-0.5" x2="13" y2="-0.5" transform="matrix(1 -1.34497e-07 -5.68248e-08 -1 586 161.5)" stroke="#1B2B38"/>
<line y1="-0.5" x2="13" y2="-0.5" transform="matrix(4.37114e-08 1 1 -4.37114e-08 592.5 213)" stroke="#1B2B38"/>
<line y1="-0.5" x2="13" y2="-0.5" transform="matrix(1 -1.34497e-07 -5.68248e-08 -1 586 219.5)" stroke="#1B2B38"/>
<line y1="-0.5" x2="13" y2="-0.5" transform="matrix(4.37114e-08 1 1 -4.37114e-08 592.5 271)" stroke="#182733"/>
<line y1="-0.5" x2="13" y2="-0.5" transform="matrix(1 -1.34497e-07 -5.68248e-08 -1 586 277.5)" stroke="#182733"/>
<line y1="-0.5" x2="13" y2="-0.5" transform="matrix(4.37114e-08 1 1 -4.37114e-08 534.5 39)" stroke="#1B2B38"/>
<line y1="-0.5" x2="13" y2="-0.5" transform="matrix(1 -1.34497e-07 -5.68248e-08 -1 528 45.5)" stroke="#1B2B38"/>
<line y1="-0.5" x2="13" y2="-0.5" transform="matrix(4.37114e-08 1 1 -4.37114e-08 534.5 97)" stroke="#1B2B38"/>
<line y1="-0.5" x2="13" y2="-0.5" transform="matrix(1 -1.34497e-07 -5.68248e-08 -1 528 103.5)" stroke="#1B2B38"/>
<line y1="-0.5" x2="13" y2="-0.5" transform="matrix(4.37114e-08 1 1 -4.37114e-08 534.5 155)" stroke="#1B2B38"/>
<line y1="-0.5" x2="13" y2="-0.5" transform="matrix(1 -1.34497e-07 -5.68248e-08 -1 528 161.5)" stroke="#1B2B38"/>
<line y1="-0.5" x2="13" y2="-0.5" transform="matrix(4.37114e-08 1 1 -4.37114e-08 534.5 213)" stroke="#1B2B38"/>
<line y1="-0.5" x2="13" y2="-0.5" transform="matrix(1 -1.34497e-07 -5.68248e-08 -1 528 219.5)" stroke="#1B2B38"/>
<line y1="-0.5" x2="13" y2="-0.5" transform="matrix(4.37114e-08 1 1 -4.37114e-08 534.5 271)" stroke="#182733"/>
<line y1="-0.5" x2="13" y2="-0.5" transform="matrix(1 -1.34497e-07 -5.68248e-08 -1 528 277.5)" stroke="#182733"/>
<line y1="-0.5" x2="13" y2="-0.5" transform="matrix(4.37114e-08 1 1 -4.37114e-08 476.5 39)" stroke="#1B2B38"/>
<line y1="-0.5" x2="13" y2="-0.5" transform="matrix(1 -1.34497e-07 -5.68248e-08 -1 470 45.5)" stroke="#1B2B38"/>
<line y1="-0.5" x2="13" y2="-0.5" transform="matrix(4.37114e-08 1 1 -4.37114e-08 476.5 97)" stroke="#1B2B38"/>
<line y1="-0.5" x2="13" y2="-0.5" transform="matrix(1 -1.34497e-07 -5.68248e-08 -1 470 103.5)" stroke="#1B2B38"/>
<line y1="-0.5" x2="13" y2="-0.5" transform="matrix(4.37114e-08 1 1 -4.37114e-08 476.5 155)" stroke="#1B2B38"/>
<line y1="-0.5" x2="13" y2="-0.5" transform="matrix(1 -1.34497e-07 -5.68248e-08 -1 470 161.5)" stroke="#1B2B38"/>
<line y1="-0.5" x2="13" y2="-0.5" transform="matrix(4.37114e-08 1 1 -4.37114e-08 476.5 213)" stroke="#182733"/>
<line y1="-0.5" x2="13" y2="-0.5" transform="matrix(1 -1.34497e-07 -5.68248e-08 -1 470 219.5)" stroke="#182733"/>
<line y1="-0.5" x2="13" y2="-0.5" transform="matrix(4.37114e-08 1 1 -4.37114e-08 476.5 271)" stroke="#182733"/>
<line y1="-0.5" x2="13" y2="-0.5" transform="matrix(1 -1.34497e-07 -5.68248e-08 -1 470 277.5)" stroke="#182733"/>
<line y1="-0.5" x2="13" y2="-0.5" transform="matrix(4.37114e-08 1 1 -4.37114e-08 418.5 39)" stroke="#1B2B38"/>
<line y1="-0.5" x2="13" y2="-0.5" transform="matrix(1 -1.34497e-07 -5.68248e-08 -1 412 45.5)" stroke="#1B2B38"/>
<line y1="-0.5" x2="13" y2="-0.5" transform="matrix(4.37114e-08 1 1 -4.37114e-08 418.5 97)" stroke="#1B2B38"/>
<line y1="-0.5" x2="13" y2="-0.5" transform="matrix(1 -1.34497e-07 -5.68248e-08 -1 412 103.5)" stroke="#1B2B38"/>
<line y1="-0.5" x2="13" y2="-0.5" transform="matrix(4.37114e-08 1 1 -4.37114e-08 418.5 155)" stroke="#1B2B38"/>
<line y1="-0.5" x2="13" y2="-0.5" transform="matrix(1 -1.34497e-07 -5.68248e-08 -1 412 161.5)" stroke="#1B2B38"/>
<line y1="-0.5" x2="13" y2="-0.5" transform="matrix(4.37114e-08 1 1 -4.37114e-08 418.5 213)" stroke="#182733"/>
<line y1="-0.5" x2="13" y2="-0.5" transform="matrix(1 -1.34497e-07 -5.68248e-08 -1 412 219.5)" stroke="#182733"/>
<line y1="-0.5" x2="13" y2="-0.5" transform="matrix(4.37114e-08 1 1 -4.37114e-08 418.5 271)" stroke="#182733"/>
<line y1="-0.5" x2="13" y2="-0.5" transform="matrix(1 -1.34497e-07 -5.68248e-08 -1 412 277.5)" stroke="#182733"/>
<line y1="-0.5" x2="13" y2="-0.5" transform="matrix(4.37114e-08 1 1 -4.37114e-08 360.5 39)" stroke="#1B2B38"/>
<line y1="-0.5" x2="13" y2="-0.5" transform="matrix(1 -1.34497e-07 -5.68248e-08 -1 354 45.5)" stroke="#1B2B38"/>
<line y1="-0.5" x2="13" y2="-0.5" transform="matrix(4.37114e-08 1 1 -4.37114e-08 360.5 97)" stroke="#1B2B38"/>
<line y1="-0.5" x2="13" y2="-0.5" transform="matrix(1 -1.34497e-07 -5.68248e-08 -1 354 103.5)" stroke="#1B2B38"/>
<line y1="-0.5" x2="13" y2="-0.5" transform="matrix(4.37114e-08 1 1 -4.37114e-08 360.5 155)" stroke="#1B2B38"/>
<line y1="-0.5" x2="13" y2="-0.5" transform="matrix(1 -1.34497e-07 -5.68248e-08 -1 354 161.5)" stroke="#1B2B38"/>
<line y1="-0.5" x2="13" y2="-0.5" transform="matrix(4.37114e-08 1 1 -4.37114e-08 360.5 213)" stroke="#182733"/>
<line y1="-0.5" x2="13" y2="-0.5" transform="matrix(1 -1.34497e-07 -5.68248e-08 -1 354 219.5)" stroke="#182733"/>
<line y1="-0.5" x2="13" y2="-0.5" transform="matrix(4.37114e-08 1 1 -4.37114e-08 360.5 271)" stroke="#182733"/>
<line y1="-0.5" x2="13" y2="-0.5" transform="matrix(1 -1.34497e-07 -5.68248e-08 -1 354 277.5)" stroke="#182733"/>
<line y1="-0.5" x2="13" y2="-0.5" transform="matrix(4.37114e-08 1 1 -4.37114e-08 302.5 39)" stroke="#1B2B38"/>
<line y1="-0.5" x2="13" y2="-0.5" transform="matrix(1 -1.34497e-07 -5.68248e-08 -1 296 45.5)" stroke="#1B2B38"/>
<line y1="-0.5" x2="13" y2="-0.5" transform="matrix(4.37114e-08 1 1 -4.37114e-08 302.5 97)" stroke="#1B2B38"/>
<line y1="-0.5" x2="13" y2="-0.5" transform="matrix(1 -1.34497e-07 -5.68248e-08 -1 296 103.5)" stroke="#1B2B38"/>
<line y1="-0.5" x2="13" y2="-0.5" transform="matrix(4.37114e-08 1 1 -4.37114e-08 302.5 155)" stroke="#182733"/>
<line y1="-0.5" x2="13" y2="-0.5" transform="matrix(1 -1.34497e-07 -5.68248e-08 -1 296 161.5)" stroke="#182733"/>
<line y1="-0.5" x2="13" y2="-0.5" transform="matrix(4.37114e-08 1 1 -4.37114e-08 302.5 213)" stroke="#16232E"/>
<line y1="-0.5" x2="13" y2="-0.5" transform="matrix(1 -1.34497e-07 -5.68248e-08 -1 296 219.5)" stroke="#16232E"/>
<line y1="-0.5" x2="13" y2="-0.5" transform="matrix(4.37114e-08 1 1 -4.37114e-08 302.5 271)" stroke="#16232E"/>
<line y1="-0.5" x2="13" y2="-0.5" transform="matrix(1 -1.34497e-07 -5.68248e-08 -1 296 277.5)" stroke="#16232E"/>
<line y1="-0.5" x2="13" y2="-0.5" transform="matrix(4.37114e-08 1 1 -4.37114e-08 244.5 39)" stroke="#1B2B38"/>
<line y1="-0.5" x2="13" y2="-0.5" transform="matrix(1 -1.34497e-07 -5.68248e-08 -1 238 45.5)" stroke="#1B2B38"/>
<line y1="-0.5" x2="13" y2="-0.5" transform="matrix(4.37114e-08 1 1 -4.37114e-08 244.5 97)" stroke="#182733"/>
<line y1="-0.5" x2="13" y2="-0.5" transform="matrix(1 -1.34497e-07 -5.68248e-08 -1 238 103.5)" stroke="#182733"/>
<line y1="-0.5" x2="13" y2="-0.5" transform="matrix(4.37114e-08 1 1 -4.37114e-08 244.5 155)" stroke="#16232E"/>
<line y1="-0.5" x2="13" y2="-0.5" transform="matrix(1 -1.34497e-07 -5.68248e-08 -1 238 161.5)" stroke="#16232E"/>
<line y1="-0.5" x2="13" y2="-0.5" transform="matrix(4.37114e-08 1 1 -4.37114e-08 244.5 213)" stroke="#16232E"/>
<line y1="-0.5" x2="13" y2="-0.5" transform="matrix(1 -1.34497e-07 -5.68248e-08 -1 238 219.5)" stroke="#16232E"/>
<line y1="-0.5" x2="13" y2="-0.5" transform="matrix(4.37114e-08 1 1 -4.37114e-08 244.5 271)" stroke="#16232E"/>
<line y1="-0.5" x2="13" y2="-0.5" transform="matrix(1 -1.34497e-07 -5.68248e-08 -1 238 277.5)" stroke="#16232E"/>
<line y1="-0.5" x2="13" y2="-0.5" transform="matrix(4.37114e-08 1 1 -4.37114e-08 186.5 39)" stroke="#182733"/>
<line y1="-0.5" x2="13" y2="-0.5" transform="matrix(1 -1.34497e-07 -5.68248e-08 -1 180 45.5)" stroke="#182733"/>
<line y1="-0.5" x2="13" y2="-0.5" transform="matrix(4.37114e-08 1 1 -4.37114e-08 186.5 97)" stroke="#16232E"/>
<line y1="-0.5" x2="13" y2="-0.5" transform="matrix(1 -1.34497e-07 -5.68248e-08 -1 180 103.5)" stroke="#16232E"/>
<line y1="-0.5" x2="13" y2="-0.5" transform="matrix(4.37114e-08 1 1 -4.37114e-08 186.5 155)" stroke="#16232E"/>
<line y1="-0.5" x2="13" y2="-0.5" transform="matrix(1 -1.34497e-07 -5.68248e-08 -1 180 161.5)" stroke="#16232E"/>
<line y1="-0.5" x2="13" y2="-0.5" transform="matrix(4.37114e-08 1 1 -4.37114e-08 186.5 213)" stroke="#16232E"/>
<line y1="-0.5" x2="13" y2="-0.5" transform="matrix(1 -1.34497e-07 -5.68248e-08 -1 180 219.5)" stroke="#16232E"/>
<line y1="-0.5" x2="13" y2="-0.5" transform="matrix(4.37114e-08 1 1 -4.37114e-08 186.5 271)" stroke="#16232E"/>
<line y1="-0.5" x2="13" y2="-0.5" transform="matrix(1 -1.34497e-07 -5.68248e-08 -1 180 277.5)" stroke="#16232E"/>
<line y1="-0.5" x2="13" y2="-0.5" transform="matrix(4.37114e-08 1 1 -4.37114e-08 128.5 39)" stroke="#182733"/>
<line y1="-0.5" x2="13" y2="-0.5" transform="matrix(1 -1.34497e-07 -5.68248e-08 -1 122 45.5)" stroke="#182733"/>
<line y1="-0.5" x2="13" y2="-0.5" transform="matrix(4.37114e-08 1 1 -4.37114e-08 128.5 97)" stroke="#16232E"/>
<line y1="-0.5" x2="13" y2="-0.5" transform="matrix(1 -1.34497e-07 -5.68248e-08 -1 122 103.5)" stroke="#16232E"/>
<line y1="-0.5" x2="13" y2="-0.5" transform="matrix(4.37114e-08 1 1 -4.37114e-08 128.5 155)" stroke="#16232E"/>
<line y1="-0.5" x2="13" y2="-0.5" transform="matrix(1 -1.34497e-07 -5.68248e-08 -1 122 161.5)" stroke="#16232E"/>
<line y1="-0.5" x2="13" y2="-0.5" transform="matrix(4.37114e-08 1 1 -4.37114e-08 128.5 213)" stroke="#16232E"/>
<line y1="-0.5" x2="13" y2="-0.5" transform="matrix(1 -1.34497e-07 -5.68248e-08 -1 122 219.5)" stroke="#16232E"/>
<line y1="-0.5" x2="13" y2="-0.5" transform="matrix(4.37114e-08 1 1 -4.37114e-08 128.5 271)" stroke="#16232E"/>
<line y1="-0.5" x2="13" y2="-0.5" transform="matrix(1 -1.34497e-07 -5.68248e-08 -1 122 277.5)" stroke="#16232E"/>
<line y1="-0.5" x2="13" y2="-0.5" transform="matrix(4.37114e-08 1 1 -4.37114e-08 70.5 39)" stroke="#14202A"/>
<line y1="-0.5" x2="13" y2="-0.5" transform="matrix(1 -1.34497e-07 -5.68248e-08 -1 64 45.5)" stroke="#14202A"/>
<line y1="-0.5" x2="13" y2="-0.5" transform="matrix(4.37114e-08 1 1 -4.37114e-08 70.5 97)" stroke="#14202A"/>
<line y1="-0.5" x2="13" y2="-0.5" transform="matrix(1 -1.34497e-07 -5.68248e-08 -1 64 103.5)" stroke="#14202A"/>
<line y1="-0.5" x2="13" y2="-0.5" transform="matrix(4.37114e-08 1 1 -4.37114e-08 70.5 155)" stroke="#14202A"/>
<line y1="-0.5" x2="13" y2="-0.5" transform="matrix(1 -1.34497e-07 -5.68248e-08 -1 64 161.5)" stroke="#14202A"/>
<line y1="-0.5" x2="13" y2="-0.5" transform="matrix(4.37114e-08 1 1 -4.37114e-08 70.5 213)" stroke="#14202A"/>
<line y1="-0.5" x2="13" y2="-0.5" transform="matrix(1 -1.34497e-07 -5.68248e-08 -1 64 219.5)" stroke="#14202A"/>
<line y1="-0.5" x2="13" y2="-0.5" transform="matrix(4.37114e-08 1 1 -4.37114e-08 70.5 271)" stroke="#14202A"/>
<line y1="-0.5" x2="13" y2="-0.5" transform="matrix(1 -1.34497e-07 -5.68248e-08 -1 64 277.5)" stroke="#14202A"/>
<rect width="32" height="3.52527" transform="matrix(-1 8.74228e-08 8.74228e-08 1 520 127)" fill="#1B2B38"/>
<rect width="32" height="3.52527" transform="matrix(-1 8.74228e-08 8.74228e-08 1 520 136.401)" fill="#1B2B38"/>
<path d="M262.267 189.507C262.861 189.188 263.257 188.572 263.257 187.824C263.257 186.713 262.355 185.8 261.233 185.8H258.164V193.5H261.486C262.652 193.5 263.587 192.565 263.587 191.399C263.587 190.519 263.037 189.804 262.267 189.507ZM261.233 186.35C262.025 186.35 262.674 187.01 262.674 187.824C262.674 188.638 262.025 189.298 261.233 189.298H258.747V186.35H261.233ZM261.486 192.95H258.747V189.848H261.486C262.322 189.848 263.004 190.541 263.004 191.399C263.004 192.257 262.322 192.95 261.486 192.95ZM268.601 192.95V185.8H268.018V193.5H272.231V192.95H268.601ZM279.426 193.621C281.648 193.621 283.397 191.85 283.397 189.65C283.397 187.45 281.648 185.679 279.426 185.679C277.204 185.679 275.455 187.45 275.455 189.65C275.455 191.85 277.204 193.621 279.426 193.621ZM279.426 193.06C277.523 193.06 276.038 191.542 276.038 189.65C276.038 187.758 277.523 186.24 279.426 186.24C281.329 186.24 282.814 187.758 282.814 189.65C282.814 191.542 281.329 193.06 279.426 193.06ZM291.439 193.621C292.88 193.621 294.134 192.873 294.761 191.74L294.244 191.443C293.738 192.411 292.66 193.06 291.439 193.06C289.415 193.06 288.018 191.542 288.018 189.65C288.018 187.758 289.415 186.24 291.439 186.24C292.649 186.24 293.716 186.878 294.222 187.824L294.739 187.527C294.101 186.405 292.858 185.679 291.439 185.679C289.096 185.679 287.435 187.45 287.435 189.65C287.435 191.85 289.096 193.621 291.439 193.621ZM304.361 193.5L300.357 189.54L304.251 185.8H303.47L299.719 189.386V185.8H299.136V193.5H299.719V189.705L303.58 193.5H304.361ZM307.914 194.963H312.611V194.435H307.914V194.963ZM319.81 189.518C320.47 189.188 320.932 188.572 320.932 187.758C320.932 186.394 319.843 185.679 318.633 185.679C317.423 185.679 316.334 186.394 316.334 187.758C316.334 188.572 316.796 189.188 317.456 189.518C316.631 189.848 316.081 190.541 316.081 191.443C316.081 192.84 317.192 193.621 318.633 193.621C320.074 193.621 321.185 192.84 321.185 191.443C321.185 190.541 320.635 189.848 319.81 189.518ZM316.917 187.758C316.917 186.768 317.665 186.24 318.633 186.24C319.601 186.24 320.349 186.768 320.349 187.758C320.349 188.704 319.601 189.265 318.633 189.265C317.665 189.265 316.917 188.704 316.917 187.758ZM318.633 193.06C317.434 193.06 316.675 192.466 316.675 191.443C316.675 190.431 317.434 189.837 318.633 189.837C319.832 189.837 320.591 190.431 320.591 191.443C320.591 192.466 319.832 193.06 318.633 193.06ZM325.022 193.5H329.862V192.939H325.858L328.245 190.486C329.026 189.694 329.686 188.847 329.686 187.89C329.686 186.46 328.575 185.679 327.398 185.679C326.397 185.679 325.528 186.163 325.066 187.109L325.561 187.406C325.924 186.636 326.562 186.24 327.398 186.24C328.333 186.24 329.092 186.834 329.092 187.89C329.092 188.649 328.52 189.375 327.849 190.068L325.022 192.972V193.5ZM336.707 193.621C338.555 193.621 339.589 192.026 339.589 189.65C339.589 187.274 338.555 185.679 336.707 185.679C334.859 185.679 333.825 187.274 333.825 189.65C333.825 192.026 334.859 193.621 336.707 193.621ZM336.707 193.06C335.277 193.06 334.419 191.806 334.419 189.65C334.419 187.494 335.277 186.24 336.707 186.24C338.137 186.24 338.995 187.494 338.995 189.65C338.995 191.806 338.137 193.06 336.707 193.06ZM348.704 188.209C348.704 186.713 347.615 185.679 346.119 185.679C344.623 185.679 343.534 186.713 343.534 188.209C343.534 189.716 344.623 190.75 346.119 190.75C346.416 190.75 346.702 190.706 346.966 190.629L344.997 193.5H345.657L348.231 189.749C348.528 189.331 348.704 188.814 348.704 188.209ZM344.128 188.209C344.128 187.065 344.898 186.24 346.119 186.24C347.34 186.24 348.121 187.065 348.121 188.209C348.121 189.364 347.34 190.189 346.119 190.189C344.898 190.189 344.128 189.364 344.128 188.209ZM356.281 189.518C356.941 189.188 357.403 188.572 357.403 187.758C357.403 186.394 356.314 185.679 355.104 185.679C353.894 185.679 352.805 186.394 352.805 187.758C352.805 188.572 353.267 189.188 353.927 189.518C353.102 189.848 352.552 190.541 352.552 191.443C352.552 192.84 353.663 193.621 355.104 193.621C356.545 193.621 357.656 192.84 357.656 191.443C357.656 190.541 357.106 189.848 356.281 189.518ZM353.388 187.758C353.388 186.768 354.136 186.24 355.104 186.24C356.072 186.24 356.82 186.768 356.82 187.758C356.82 188.704 356.072 189.265 355.104 189.265C354.136 189.265 353.388 188.704 353.388 187.758ZM355.104 193.06C353.905 193.06 353.146 192.466 353.146 191.443C353.146 190.431 353.905 189.837 355.104 189.837C356.303 189.837 357.062 190.431 357.062 191.443C357.062 192.466 356.303 193.06 355.104 193.06ZM367.262 191.333H366.272V188.913H365.689V191.333H362.191L365.106 185.8H364.468L361.542 191.333V191.883H365.689V193.5H366.272V191.883H367.262V191.333ZM373.466 188.935H372.014L372.19 186.35H375.743V185.8H371.673L371.409 189.496H373.466C374.61 189.496 375.446 190.167 375.446 191.278C375.446 192.389 374.61 193.06 373.466 193.06C372.52 193.06 371.783 192.609 371.53 191.784L371.035 192.07C371.387 193.082 372.366 193.621 373.466 193.621C374.852 193.621 376.029 192.763 376.029 191.278C376.029 189.793 374.852 188.935 373.466 188.935ZM382.849 193.621C384.697 193.621 385.731 192.026 385.731 189.65C385.731 187.274 384.697 185.679 382.849 185.679C381.001 185.679 379.967 187.274 379.967 189.65C379.967 192.026 381.001 193.621 382.849 193.621ZM382.849 193.06C381.419 193.06 380.561 191.806 380.561 189.65C380.561 187.494 381.419 186.24 382.849 186.24C384.279 186.24 385.137 187.494 385.137 189.65C385.137 191.806 384.279 193.06 382.849 193.06ZM389.678 193.5H394.518V192.939H390.514L392.901 190.486C393.682 189.694 394.342 188.847 394.342 187.89C394.342 186.46 393.231 185.679 392.054 185.679C391.053 185.679 390.184 186.163 389.722 187.109L390.217 187.406C390.58 186.636 391.218 186.24 392.054 186.24C392.989 186.24 393.748 186.834 393.748 187.89C393.748 188.649 393.176 189.375 392.505 190.068L389.678 192.972V193.5ZM402.154 189.518C402.814 189.188 403.276 188.572 403.276 187.758C403.276 186.394 402.187 185.679 400.977 185.679C399.767 185.679 398.678 186.394 398.678 187.758C398.678 188.572 399.14 189.188 399.8 189.518C398.975 189.848 398.425 190.541 398.425 191.443C398.425 192.84 399.536 193.621 400.977 193.621C402.418 193.621 403.529 192.84 403.529 191.443C403.529 190.541 402.979 189.848 402.154 189.518ZM399.261 187.758C399.261 186.768 400.009 186.24 400.977 186.24C401.945 186.24 402.693 186.768 402.693 187.758C402.693 188.704 401.945 189.265 400.977 189.265C400.009 189.265 399.261 188.704 399.261 187.758ZM400.977 193.06C399.778 193.06 399.019 192.466 399.019 191.443C399.019 190.431 399.778 189.837 400.977 189.837C402.176 189.837 402.935 190.431 402.935 191.443C402.935 192.466 402.176 193.06 400.977 193.06Z" fill="#2F4252"/>
<g filter="url(#filter14_f_1730_25359)">
<rect x="205" y="66" width="20" height="20" fill="#16232E"/>
</g>
<defs>
<filter id="filter0_f_1730_25359" x="68.0005" y="0" width="5" height="302" filterUnits="userSpaceOnUse" color-interpolation-filters="sRGB">
<feFlood flood-opacity="0" result="BackgroundImageFix"/>
<feBlend mode="normal" in="SourceGraphic" in2="BackgroundImageFix" result="shape"/>
<feGaussianBlur stdDeviation="1" result="effect1_foregroundBlur_1730_25359"/>
</filter>
<filter id="filter1_f_1730_25359" x="126" y="0" width="5" height="302" filterUnits="userSpaceOnUse" color-interpolation-filters="sRGB">
<feFlood flood-opacity="0" result="BackgroundImageFix"/>
<feBlend mode="normal" in="SourceGraphic" in2="BackgroundImageFix" result="shape"/>
<feGaussianBlur stdDeviation="1" result="effect1_foregroundBlur_1730_25359"/>
</filter>
<filter id="filter2_f_1730_25359" x="184" y="0" width="5" height="302" filterUnits="userSpaceOnUse" color-interpolation-filters="sRGB">
<feFlood flood-opacity="0" result="BackgroundImageFix"/>
<feBlend mode="normal" in="SourceGraphic" in2="BackgroundImageFix" result="shape"/>
<feGaussianBlur stdDeviation="1" result="effect1_foregroundBlur_1730_25359"/>
</filter>
<filter id="filter3_f_1730_25359" x="242" y="0" width="5" height="302" filterUnits="userSpaceOnUse" color-interpolation-filters="sRGB">
<feFlood flood-opacity="0" result="BackgroundImageFix"/>
<feBlend mode="normal" in="SourceGraphic" in2="BackgroundImageFix" result="shape"/>
<feGaussianBlur stdDeviation="1" result="effect1_foregroundBlur_1730_25359"/>
</filter>
<filter id="filter4_f_1730_25359" x="300" y="0" width="5" height="302" filterUnits="userSpaceOnUse" color-interpolation-filters="sRGB">
<feFlood flood-opacity="0" result="BackgroundImageFix"/>
<feBlend mode="normal" in="SourceGraphic" in2="BackgroundImageFix" result="shape"/>
<feGaussianBlur stdDeviation="1" result="effect1_foregroundBlur_1730_25359"/>
</filter>
<filter id="filter5_f_1730_25359" x="358" y="0" width="5" height="302" filterUnits="userSpaceOnUse" color-interpolation-filters="sRGB">
<feFlood flood-opacity="0" result="BackgroundImageFix"/>
<feBlend mode="normal" in="SourceGraphic" in2="BackgroundImageFix" result="shape"/>
<feGaussianBlur stdDeviation="1" result="effect1_foregroundBlur_1730_25359"/>
</filter>
<filter id="filter6_f_1730_25359" x="416.001" y="0" width="5" height="302" filterUnits="userSpaceOnUse" color-interpolation-filters="sRGB">
<feFlood flood-opacity="0" result="BackgroundImageFix"/>
<feBlend mode="normal" in="SourceGraphic" in2="BackgroundImageFix" result="shape"/>
<feGaussianBlur stdDeviation="1" result="effect1_foregroundBlur_1730_25359"/>
</filter>
<filter id="filter7_f_1730_25359" x="474.001" y="0" width="5" height="302" filterUnits="userSpaceOnUse" color-interpolation-filters="sRGB">
<feFlood flood-opacity="0" result="BackgroundImageFix"/>
<feBlend mode="normal" in="SourceGraphic" in2="BackgroundImageFix" result="shape"/>
<feGaussianBlur stdDeviation="1" result="effect1_foregroundBlur_1730_25359"/>
</filter>
<filter id="filter8_f_1730_25359" x="532.001" y="0" width="5" height="302" filterUnits="userSpaceOnUse" color-interpolation-filters="sRGB">
<feFlood flood-opacity="0" result="BackgroundImageFix"/>
<feBlend mode="normal" in="SourceGraphic" in2="BackgroundImageFix" result="shape"/>
<feGaussianBlur stdDeviation="1" result="effect1_foregroundBlur_1730_25359"/>
</filter>
<filter id="filter9_f_1730_25359" x="590.001" y="0" width="5" height="302" filterUnits="userSpaceOnUse" color-interpolation-filters="sRGB">
<feFlood flood-opacity="0" result="BackgroundImageFix"/>
<feBlend mode="normal" in="SourceGraphic" in2="BackgroundImageFix" result="shape"/>
<feGaussianBlur stdDeviation="1" result="effect1_foregroundBlur_1730_25359"/>
</filter>
<filter id="filter10_f_1730_25359" x="648.001" y="0" width="5" height="302" filterUnits="userSpaceOnUse" color-interpolation-filters="sRGB">
<feFlood flood-opacity="0" result="BackgroundImageFix"/>
<feBlend mode="normal" in="SourceGraphic" in2="BackgroundImageFix" result="shape"/>
<feGaussianBlur stdDeviation="1" result="effect1_foregroundBlur_1730_25359"/>
</filter>
<filter id="filter11_f_1730_25359" x="706.001" y="40" width="5" height="262" filterUnits="userSpaceOnUse" color-interpolation-filters="sRGB">
<feFlood flood-opacity="0" result="BackgroundImageFix"/>
<feBlend mode="normal" in="SourceGraphic" in2="BackgroundImageFix" result="shape"/>
<feGaussianBlur stdDeviation="1" result="effect1_foregroundBlur_1730_25359"/>
</filter>
<filter id="filter12_f_1730_25359" x="764.001" y="128" width="5" height="174" filterUnits="userSpaceOnUse" color-interpolation-filters="sRGB">
<feFlood flood-opacity="0" result="BackgroundImageFix"/>
<feBlend mode="normal" in="SourceGraphic" in2="BackgroundImageFix" result="shape"/>
<feGaussianBlur stdDeviation="1" result="effect1_foregroundBlur_1730_25359"/>
</filter>
<filter id="filter13_f_1730_25359" x="822.001" y="216" width="5" height="86" filterUnits="userSpaceOnUse" color-interpolation-filters="sRGB">
<feFlood flood-opacity="0" result="BackgroundImageFix"/>
<feBlend mode="normal" in="SourceGraphic" in2="BackgroundImageFix" result="shape"/>
<feGaussianBlur stdDeviation="1" result="effect1_foregroundBlur_1730_25359"/>
</filter>
<filter id="filter14_f_1730_25359" x="201" y="62" width="28" height="28" filterUnits="userSpaceOnUse" color-interpolation-filters="sRGB">
<feFlood flood-opacity="0" result="BackgroundImageFix"/>
<feBlend mode="normal" in="SourceGraphic" in2="BackgroundImageFix" result="shape"/>
<feGaussianBlur stdDeviation="2" result="effect1_foregroundBlur_1730_25359"/>
</filter>
<linearGradient id="paint0_linear_1730_25359" x1="70.0005" y1="2" x2="70.0005" y2="300" gradientUnits="userSpaceOnUse">
<stop stop-color="#1B2B38" stop-opacity="0"/>
<stop offset="0.248574" stop-color="#1B2B38" stop-opacity="0.4"/>
<stop offset="0.769419" stop-color="#1B2B38" stop-opacity="0.4"/>
<stop offset="1" stop-color="#1B2B38" stop-opacity="0"/>
</linearGradient>
<linearGradient id="paint1_linear_1730_25359" x1="128" y1="2" x2="128" y2="300" gradientUnits="userSpaceOnUse">
<stop stop-color="#1B2B38" stop-opacity="0"/>
<stop offset="0.248574" stop-color="#1B2B38" stop-opacity="0.4"/>
<stop offset="0.769419" stop-color="#1B2B38" stop-opacity="0.4"/>
<stop offset="1" stop-color="#1B2B38" stop-opacity="0"/>
</linearGradient>
<linearGradient id="paint2_linear_1730_25359" x1="186" y1="2" x2="186" y2="300" gradientUnits="userSpaceOnUse">
<stop stop-color="#1B2B38" stop-opacity="0"/>
<stop offset="0.248574" stop-color="#1B2B38" stop-opacity="0.4"/>
<stop offset="0.769419" stop-color="#1B2B38" stop-opacity="0.4"/>
<stop offset="1" stop-color="#1B2B38" stop-opacity="0"/>
</linearGradient>
<linearGradient id="paint3_linear_1730_25359" x1="244" y1="2" x2="244" y2="300" gradientUnits="userSpaceOnUse">
<stop stop-color="#1B2B38" stop-opacity="0"/>
<stop offset="0.248574" stop-color="#1B2B38" stop-opacity="0.4"/>
<stop offset="0.769419" stop-color="#1B2B38" stop-opacity="0.4"/>
<stop offset="1" stop-color="#1B2B38" stop-opacity="0"/>
</linearGradient>
<linearGradient id="paint4_linear_1730_25359" x1="302" y1="2" x2="302" y2="300" gradientUnits="userSpaceOnUse">
<stop stop-color="#1B2B38" stop-opacity="0"/>
<stop offset="0.248574" stop-color="#1B2B38" stop-opacity="0.4"/>
<stop offset="0.769419" stop-color="#1B2B38" stop-opacity="0.4"/>
<stop offset="1" stop-color="#1B2B38" stop-opacity="0"/>
</linearGradient>
<linearGradient id="paint5_linear_1730_25359" x1="360" y1="2" x2="360" y2="300" gradientUnits="userSpaceOnUse">
<stop stop-color="#1B2B38" stop-opacity="0"/>
<stop offset="0.248574" stop-color="#1B2B38" stop-opacity="0.4"/>
<stop offset="0.769419" stop-color="#1B2B38" stop-opacity="0.4"/>
<stop offset="1" stop-color="#1B2B38" stop-opacity="0"/>
</linearGradient>
<linearGradient id="paint6_linear_1730_25359" x1="418.001" y1="2" x2="418.001" y2="300" gradientUnits="userSpaceOnUse">
<stop stop-color="#1B2B38" stop-opacity="0"/>
<stop offset="0.248574" stop-color="#1B2B38" stop-opacity="0.4"/>
<stop offset="0.769419" stop-color="#1B2B38" stop-opacity="0.4"/>
<stop offset="1" stop-color="#1B2B38" stop-opacity="0"/>
</linearGradient>
<linearGradient id="paint7_linear_1730_25359" x1="476.001" y1="2" x2="476.001" y2="300" gradientUnits="userSpaceOnUse">
<stop stop-color="#1B2B38" stop-opacity="0"/>
<stop offset="0.248574" stop-color="#1B2B38" stop-opacity="0.4"/>
<stop offset="0.769419" stop-color="#1B2B38" stop-opacity="0.4"/>
<stop offset="1" stop-color="#1B2B38" stop-opacity="0"/>
</linearGradient>
<linearGradient id="paint8_linear_1730_25359" x1="534.001" y1="2" x2="534.001" y2="300" gradientUnits="userSpaceOnUse">
<stop stop-color="#1B2B38" stop-opacity="0"/>
<stop offset="0.248574" stop-color="#1B2B38" stop-opacity="0.4"/>
<stop offset="0.769419" stop-color="#1B2B38" stop-opacity="0.4"/>
<stop offset="1" stop-color="#1B2B38" stop-opacity="0"/>
</linearGradient>
<linearGradient id="paint9_linear_1730_25359" x1="592.001" y1="2" x2="592.001" y2="300" gradientUnits="userSpaceOnUse">
<stop stop-color="#1B2B38" stop-opacity="0"/>
<stop offset="0.248574" stop-color="#1B2B38" stop-opacity="0.4"/>
<stop offset="0.769419" stop-color="#1B2B38" stop-opacity="0.4"/>
<stop offset="1" stop-color="#1B2B38" stop-opacity="0"/>
</linearGradient>
<linearGradient id="paint10_linear_1730_25359" x1="650.001" y1="2" x2="650.001" y2="300" gradientUnits="userSpaceOnUse">
<stop stop-color="#1B2B38" stop-opacity="0"/>
<stop offset="0.248574" stop-color="#1B2B38" stop-opacity="0.4"/>
<stop offset="0.769419" stop-color="#1B2B38" stop-opacity="0.4"/>
<stop offset="1" stop-color="#1B2B38" stop-opacity="0"/>
</linearGradient>
<linearGradient id="paint11_linear_1730_25359" x1="708.001" y1="42" x2="708.001" y2="300" gradientUnits="userSpaceOnUse">
<stop stop-color="#1B2B38" stop-opacity="0"/>
<stop offset="0.248574" stop-color="#1B2B38" stop-opacity="0.4"/>
<stop offset="0.769419" stop-color="#1B2B38" stop-opacity="0.4"/>
<stop offset="1" stop-color="#1B2B38" stop-opacity="0"/>
</linearGradient>
<linearGradient id="paint12_linear_1730_25359" x1="766.001" y1="130" x2="766.001" y2="300" gradientUnits="userSpaceOnUse">
<stop stop-color="#1B2B38" stop-opacity="0"/>
<stop offset="0.248574" stop-color="#1B2B38" stop-opacity="0.4"/>
<stop offset="0.769419" stop-color="#1B2B38" stop-opacity="0.4"/>
<stop offset="1" stop-color="#1B2B38" stop-opacity="0"/>
</linearGradient>
<linearGradient id="paint13_linear_1730_25359" x1="824.001" y1="218" x2="824.001" y2="300" gradientUnits="userSpaceOnUse">
<stop stop-color="#1B2B38" stop-opacity="0"/>
<stop offset="0.248574" stop-color="#1B2B38" stop-opacity="0.4"/>
<stop offset="0.769419" stop-color="#1B2B38" stop-opacity="0.4"/>
<stop offset="1" stop-color="#1B2B38" stop-opacity="0"/>
</linearGradient>
</defs>
</svg>
