<svg width="892" height="298" viewBox="0 0 892 298" fill="none" xmlns="http://www.w3.org/2000/svg">
<g filter="url(#filter0_f_1730_25845)">
<path d="M215 73L513.486 73C514.123 73 514.723 72.696 515.099 72.1815L535 45" stroke="url(#paint0_linear_1730_25845)"/>
</g>
<g filter="url(#filter1_f_1730_25845)">
<path d="M169 131L546.442 131C547.104 131 547.723 130.673 548.095 130.126L586.405 73.8742C586.777 73.3273 587.396 73 588.058 73L852 73" stroke="url(#paint1_linear_1730_25845)"/>
</g>
<g filter="url(#filter2_f_1730_25845)">
<path d="M559.5 216.5L619.402 131.68C619.777 131.149 620.386 130.833 621.036 130.833L844 130.833" stroke="url(#paint2_linear_1730_25845)"/>
</g>
<g filter="url(#filter3_f_1730_25845)">
<path d="M138 189L513.435 189C514.101 189 514.723 188.669 515.094 188.116L534 160" stroke="url(#paint3_linear_1730_25845)"/>
</g>
<g filter="url(#filter4_f_1730_25845)">
<line y1="-0.5" x2="209" y2="-0.5" transform="matrix(1 0 0 -1 635 188)" stroke="url(#paint4_linear_1730_25845)"/>
</g>
<g filter="url(#filter5_f_1730_25845)">
<path d="M110 246L349.445 246C350.105 246 350.723 246.326 351.096 246.871L370 274.5" stroke="url(#paint5_linear_1730_25845)"/>
</g>
<g filter="url(#filter6_f_1730_25845)">
<path d="M398 217L416.903 244.143C417.277 244.68 417.89 245 418.544 245L844 245" stroke="url(#paint6_linear_1730_25845)"/>
</g>
<path d="M201 45L501 45" stroke="url(#paint7_linear_1730_25845)"/>
<path d="M162 101.5L525.945 101.5C526.605 101.5 527.223 101.174 527.596 100.629L565.404 45.3706C565.777 44.8258 566.395 44.5 567.055 44.5L892 44.5" stroke="url(#paint8_linear_1730_25845)"/>
<path d="M430 217H525.947C526.606 217 527.223 216.676 527.596 216.132L605.404 102.868C605.777 102.324 606.394 102 607.053 102L892 102" stroke="url(#paint9_linear_1730_25845)" stroke-dasharray="8 4"/>
<path d="M123 160L503 160" stroke="url(#paint10_linear_1730_25845)" stroke-dasharray="8 4"/>
<path d="M622 159.5L892 159.5" stroke="url(#paint11_linear_1730_25845)"/>
<path d="M892 274L405.555 274C404.895 274 404.277 273.674 403.904 273.129L366.096 217.871C365.723 217.326 365.105 217 364.445 217L82 217" stroke="url(#paint12_linear_1730_25845)"/>
<line y1="-0.5" x2="301" y2="-0.5" transform="matrix(1 -8.74228e-08 -8.74228e-08 -1 591 216)" stroke="url(#paint13_linear_1730_25845)"/>
<path d="M44 274L340 274" stroke="url(#paint14_linear_1730_25845)"/>
<path d="M455.503 122L463.386 129.883C464.167 130.664 464.167 131.93 463.386 132.711L455.503 140.594" stroke="#415566"/>
<path opacity="0.8" d="M440.627 122L448.51 129.883C449.291 130.664 449.291 131.93 448.51 132.711L440.627 140.594" stroke="#415566"/>
<path opacity="0.6" d="M425.752 122L433.635 129.883C434.416 130.664 434.416 131.93 433.635 132.711L425.752 140.594" stroke="#415566"/>
<path opacity="0.4" d="M410.876 122L418.759 129.883C419.54 130.664 419.54 131.93 418.759 132.711L410.876 140.594" stroke="#415566"/>
<path opacity="0.2" d="M396 122L403.883 129.883C404.664 130.664 404.664 131.93 403.883 132.711L396 140.594" stroke="#415566"/>
<g filter="url(#filter7_f_1730_25845)">
<circle r="5" transform="matrix(-1 -8.74228e-08 -8.74228e-08 1 752 73)" fill="#16232E"/>
</g>
<g filter="url(#filter8_f_1730_25845)">
<circle r="9" transform="matrix(-1 -8.74228e-08 -8.74228e-08 1 703 73)" fill="#16232E"/>
</g>
<g filter="url(#filter9_f_1730_25845)">
<circle r="3" transform="matrix(-1 -8.74228e-08 -8.74228e-08 1 800 73)" fill="#16232E"/>
</g>
<rect width="11.125" height="11.125" transform="matrix(-1 0 0 1 712 182)" fill="#16232E"/>
<rect width="11.125" height="11.125" transform="matrix(-1 0 0 1 689.75 182)" fill="#16232E"/>
<rect width="11.125" height="11.125" transform="matrix(-1 0 0 1 667.5 182)" fill="#16232E"/>
<rect width="11.125" height="11.125" transform="matrix(-1 0 0 1 634.125 182)" fill="#1B2B38"/>
<defs>
<filter id="filter0_f_1730_25845" x="213" y="42.7046" width="324.403" height="32.7954" filterUnits="userSpaceOnUse" color-interpolation-filters="sRGB">
<feFlood flood-opacity="0" result="BackgroundImageFix"/>
<feBlend mode="normal" in="SourceGraphic" in2="BackgroundImageFix" result="shape"/>
<feGaussianBlur stdDeviation="1" result="effect1_foregroundBlur_1730_25845"/>
</filter>
<filter id="filter1_f_1730_25845" x="167" y="70.5" width="687" height="63" filterUnits="userSpaceOnUse" color-interpolation-filters="sRGB">
<feFlood flood-opacity="0" result="BackgroundImageFix"/>
<feBlend mode="normal" in="SourceGraphic" in2="BackgroundImageFix" result="shape"/>
<feGaussianBlur stdDeviation="1" result="effect1_foregroundBlur_1730_25845"/>
</filter>
<filter id="filter2_f_1730_25845" x="557.092" y="128.333" width="288.908" height="90.4548" filterUnits="userSpaceOnUse" color-interpolation-filters="sRGB">
<feFlood flood-opacity="0" result="BackgroundImageFix"/>
<feBlend mode="normal" in="SourceGraphic" in2="BackgroundImageFix" result="shape"/>
<feGaussianBlur stdDeviation="1" result="effect1_foregroundBlur_1730_25845"/>
</filter>
<filter id="filter3_f_1730_25845" x="136" y="157.721" width="400.415" height="33.7791" filterUnits="userSpaceOnUse" color-interpolation-filters="sRGB">
<feFlood flood-opacity="0" result="BackgroundImageFix"/>
<feBlend mode="normal" in="SourceGraphic" in2="BackgroundImageFix" result="shape"/>
<feGaussianBlur stdDeviation="1" result="effect1_foregroundBlur_1730_25845"/>
</filter>
<filter id="filter4_f_1730_25845" x="633" y="186" width="213" height="5" filterUnits="userSpaceOnUse" color-interpolation-filters="sRGB">
<feFlood flood-opacity="0" result="BackgroundImageFix"/>
<feBlend mode="normal" in="SourceGraphic" in2="BackgroundImageFix" result="shape"/>
<feGaussianBlur stdDeviation="1" result="effect1_foregroundBlur_1730_25845"/>
</filter>
<filter id="filter5_f_1730_25845" x="108" y="243.5" width="264.413" height="33.2822" filterUnits="userSpaceOnUse" color-interpolation-filters="sRGB">
<feFlood flood-opacity="0" result="BackgroundImageFix"/>
<feBlend mode="normal" in="SourceGraphic" in2="BackgroundImageFix" result="shape"/>
<feGaussianBlur stdDeviation="1" result="effect1_foregroundBlur_1730_25845"/>
</filter>
<filter id="filter6_f_1730_25845" x="395.59" y="214.714" width="450.41" height="32.7856" filterUnits="userSpaceOnUse" color-interpolation-filters="sRGB">
<feFlood flood-opacity="0" result="BackgroundImageFix"/>
<feBlend mode="normal" in="SourceGraphic" in2="BackgroundImageFix" result="shape"/>
<feGaussianBlur stdDeviation="1" result="effect1_foregroundBlur_1730_25845"/>
</filter>
<filter id="filter7_f_1730_25845" x="743" y="64" width="18" height="18" filterUnits="userSpaceOnUse" color-interpolation-filters="sRGB">
<feFlood flood-opacity="0" result="BackgroundImageFix"/>
<feBlend mode="normal" in="SourceGraphic" in2="BackgroundImageFix" result="shape"/>
<feGaussianBlur stdDeviation="2" result="effect1_foregroundBlur_1730_25845"/>
</filter>
<filter id="filter8_f_1730_25845" x="690" y="60" width="26" height="26" filterUnits="userSpaceOnUse" color-interpolation-filters="sRGB">
<feFlood flood-opacity="0" result="BackgroundImageFix"/>
<feBlend mode="normal" in="SourceGraphic" in2="BackgroundImageFix" result="shape"/>
<feGaussianBlur stdDeviation="2" result="effect1_foregroundBlur_1730_25845"/>
</filter>
<filter id="filter9_f_1730_25845" x="793" y="66" width="14" height="14" filterUnits="userSpaceOnUse" color-interpolation-filters="sRGB">
<feFlood flood-opacity="0" result="BackgroundImageFix"/>
<feBlend mode="normal" in="SourceGraphic" in2="BackgroundImageFix" result="shape"/>
<feGaussianBlur stdDeviation="2" result="effect1_foregroundBlur_1730_25845"/>
</filter>
<linearGradient id="paint0_linear_1730_25845" x1="215" y1="73" x2="535" y2="73" gradientUnits="userSpaceOnUse">
<stop stop-color="#1B2B38" stop-opacity="0"/>
<stop offset="0.248574" stop-color="#1B2B38" stop-opacity="0.4"/>
<stop offset="0.922308" stop-color="#1B2B38" stop-opacity="0.4"/>
<stop offset="1" stop-color="#1B2B38" stop-opacity="0"/>
</linearGradient>
<linearGradient id="paint1_linear_1730_25845" x1="169" y1="131" x2="852" y2="131" gradientUnits="userSpaceOnUse">
<stop stop-color="#1B2B38" stop-opacity="0"/>
<stop offset="0.248574" stop-color="#1B2B38" stop-opacity="0.4"/>
<stop offset="0.769419" stop-color="#1B2B38" stop-opacity="0.4"/>
<stop offset="1" stop-color="#1B2B38" stop-opacity="0"/>
</linearGradient>
<linearGradient id="paint2_linear_1730_25845" x1="559.5" y1="216.5" x2="844" y2="216.5" gradientUnits="userSpaceOnUse">
<stop stop-color="#1B2B38" stop-opacity="0"/>
<stop offset="0.1748" stop-color="#1B2B38" stop-opacity="0.4"/>
<stop offset="0.769419" stop-color="#1B2B38" stop-opacity="0.4"/>
<stop offset="1" stop-color="#1B2B38" stop-opacity="0"/>
</linearGradient>
<linearGradient id="paint3_linear_1730_25845" x1="138" y1="189" x2="534" y2="189" gradientUnits="userSpaceOnUse">
<stop stop-color="#1B2B38" stop-opacity="0"/>
<stop offset="0.248574" stop-color="#1B2B38" stop-opacity="0.4"/>
<stop offset="0.923729" stop-color="#1B2B38" stop-opacity="0.4"/>
<stop offset="1" stop-color="#1B2B38" stop-opacity="0"/>
</linearGradient>
<linearGradient id="paint4_linear_1730_25845" x1="0" y1="0" x2="209" y2="4.98431e-06" gradientUnits="userSpaceOnUse">
<stop stop-color="#1B2B38" stop-opacity="0"/>
<stop offset="0.248574" stop-color="#1B2B38" stop-opacity="0.4"/>
<stop offset="0.769419" stop-color="#1B2B38" stop-opacity="0.4"/>
<stop offset="1" stop-color="#1B2B38" stop-opacity="0"/>
</linearGradient>
<linearGradient id="paint5_linear_1730_25845" x1="110" y1="274.5" x2="370" y2="274.5" gradientUnits="userSpaceOnUse">
<stop stop-color="#1B2B38" stop-opacity="0"/>
<stop offset="0.248574" stop-color="#1B2B38" stop-opacity="0.4"/>
<stop offset="0.904805" stop-color="#1B2B38" stop-opacity="0.4"/>
<stop offset="1" stop-color="#1B2B38" stop-opacity="0"/>
</linearGradient>
<linearGradient id="paint6_linear_1730_25845" x1="398" y1="245" x2="844" y2="245" gradientUnits="userSpaceOnUse">
<stop stop-color="#1B2B38" stop-opacity="0"/>
<stop offset="0.0754657" stop-color="#1B2B38" stop-opacity="0.4"/>
<stop offset="0.769419" stop-color="#1B2B38" stop-opacity="0.4"/>
<stop offset="1" stop-color="#1B2B38" stop-opacity="0"/>
</linearGradient>
<linearGradient id="paint7_linear_1730_25845" x1="501.005" y1="44.9675" x2="201" y2="44.9735" gradientUnits="userSpaceOnUse">
<stop stop-color="#1B2B38" stop-opacity="0"/>
<stop offset="0.218766" stop-color="#1B2B38"/>
<stop offset="0.796904" stop-color="#1B2B38"/>
<stop offset="1" stop-color="#1B2B38" stop-opacity="0"/>
</linearGradient>
<linearGradient id="paint8_linear_1730_25845" x1="892.013" y1="99.6459" x2="162" y2="99.6465" gradientUnits="userSpaceOnUse">
<stop stop-color="#1B2B38" stop-opacity="0"/>
<stop offset="0.218766" stop-color="#1B2B38"/>
<stop offset="0.796904" stop-color="#1B2B38"/>
<stop offset="1" stop-color="#1B2B38" stop-opacity="0"/>
</linearGradient>
<linearGradient id="paint9_linear_1730_25845" x1="892.008" y1="213.259" x2="430" y2="213.259" gradientUnits="userSpaceOnUse">
<stop stop-color="#1B2B38" stop-opacity="0"/>
<stop offset="0.218766" stop-color="#1B2B38"/>
<stop offset="0.796904" stop-color="#1B2B38"/>
<stop offset="1" stop-color="#1B2B38" stop-opacity="0"/>
</linearGradient>
<linearGradient id="paint10_linear_1730_25845" x1="503.007" y1="159.967" x2="123" y2="159.977" gradientUnits="userSpaceOnUse">
<stop stop-color="#1B2B38" stop-opacity="0"/>
<stop offset="0.218766" stop-color="#1B2B38"/>
<stop offset="0.796904" stop-color="#1B2B38"/>
<stop offset="1" stop-color="#1B2B38" stop-opacity="0"/>
</linearGradient>
<linearGradient id="paint11_linear_1730_25845" x1="892.005" y1="159.467" x2="622" y2="159.472" gradientUnits="userSpaceOnUse">
<stop stop-color="#1B2B38" stop-opacity="0"/>
<stop offset="0.218766" stop-color="#1B2B38"/>
<stop offset="0.796904" stop-color="#1B2B38"/>
<stop offset="1" stop-color="#1B2B38" stop-opacity="0"/>
</linearGradient>
<linearGradient id="paint12_linear_1730_25845" x1="81.9856" y1="272.146" x2="892" y2="272.147" gradientUnits="userSpaceOnUse">
<stop stop-color="#1B2B38" stop-opacity="0"/>
<stop offset="0.218766" stop-color="#1B2B38"/>
<stop offset="0.796904" stop-color="#1B2B38"/>
<stop offset="1" stop-color="#1B2B38" stop-opacity="0"/>
</linearGradient>
<linearGradient id="paint13_linear_1730_25845" x1="301.005" y1="0.0325278" x2="-5.30938e-07" y2="0.0264961" gradientUnits="userSpaceOnUse">
<stop stop-color="#1B2B38" stop-opacity="0"/>
<stop offset="0.218766" stop-color="#1B2B38"/>
<stop offset="0.796904" stop-color="#1B2B38"/>
<stop offset="1" stop-color="#1B2B38" stop-opacity="0"/>
</linearGradient>
<linearGradient id="paint14_linear_1730_25845" x1="340.005" y1="273.967" x2="44" y2="273.973" gradientUnits="userSpaceOnUse">
<stop stop-color="#1B2B38" stop-opacity="0"/>
<stop offset="0.218766" stop-color="#1B2B38"/>
<stop offset="0.796904" stop-color="#1B2B38"/>
<stop offset="1" stop-color="#1B2B38" stop-opacity="0"/>
</linearGradient>
</defs>
</svg>
