<svg width="118" height="67" viewBox="0 0 118 67" fill="none" xmlns="http://www.w3.org/2000/svg">
<path d="M17.1254 32.4913V23.4375C17.1254 23.3944 17.1083 23.353 17.0778 23.3225C17.0473 23.292 17.0059 23.2749 16.9628 23.2749H15.6617C15.6185 23.2749 15.5772 23.292 15.5467 23.3225C15.5162 23.353 15.499 23.3944 15.499 23.4375V33.955C15.499 33.9982 15.5162 34.0396 15.5467 34.0701C15.5772 34.1006 15.6185 34.1177 15.6617 34.1177H22.3842C22.4273 34.1177 22.4687 34.1006 22.4992 34.0701C22.5297 34.0396 22.5468 33.9982 22.5468 33.955V32.6539C22.5468 32.6108 22.5297 32.5694 22.4992 32.5389C22.4687 32.5084 22.4273 32.4913 22.3842 32.4913H17.1254Z" fill="white"/>
<path d="M33.9277 23.2749H26.1209C26.0311 23.2749 25.9583 23.3477 25.9583 23.4375V24.7387C25.9583 24.8285 26.0311 24.9013 26.1209 24.9013H33.9277C34.0175 24.9013 34.0903 24.8285 34.0903 24.7387V23.4375C34.0903 23.3477 34.0175 23.2749 33.9277 23.2749Z" fill="white"/>
<path d="M33.9277 32.4912H26.1209C26.0311 32.4912 25.9583 32.564 25.9583 32.6539V33.955C25.9583 34.0448 26.0311 34.1176 26.1209 34.1176H33.9277C34.0175 34.1176 34.0903 34.0448 34.0903 33.955V32.6539C34.0903 32.564 34.0175 32.4912 33.9277 32.4912Z" fill="white"/>
<path d="M33.9277 27.877H26.1209C26.0311 27.877 25.9583 27.9498 25.9583 28.0396V29.3407C25.9583 29.4306 26.0311 29.5034 26.1209 29.5034H33.9277C34.0175 29.5034 34.0903 29.4306 34.0903 29.3407V28.0396C34.0903 27.9498 34.0175 27.877 33.9277 27.877Z" fill="white"/>
<path d="M91.1677 23.2749H83.3609C83.2711 23.2749 83.1982 23.3477 83.1982 23.4375V24.7387C83.1982 24.8285 83.2711 24.9013 83.3609 24.9013H91.1677C91.2575 24.9013 91.3303 24.8285 91.3303 24.7387V23.4375C91.3303 23.3477 91.2575 23.2749 91.1677 23.2749Z" fill="white"/>
<path d="M91.1677 32.4912H83.3609C83.2711 32.4912 83.1982 32.564 83.1982 32.6539V33.955C83.1982 34.0448 83.2711 34.1176 83.3609 34.1176H91.1677C91.2575 34.1176 91.3303 34.0448 91.3303 33.955V32.6539C91.3303 32.564 91.2575 32.4912 91.1677 32.4912Z" fill="white"/>
<path d="M91.1677 27.877H83.3609C83.2711 27.877 83.1982 27.9498 83.1982 28.0396V29.3407C83.1982 29.4306 83.2711 29.5034 83.3609 29.5034H91.1677C91.2575 29.5034 91.3303 29.4306 91.3303 29.3407V28.0396C91.3303 27.9498 91.2575 27.877 91.1677 27.877Z" fill="white"/>
<path d="M59.7878 23.2749H58.4866C58.3968 23.2749 58.324 23.3477 58.324 23.4375V33.955C58.324 34.0449 58.3968 34.1177 58.4866 34.1177H59.7878C59.8776 34.1177 59.9504 34.0449 59.9504 33.955V23.4375C59.9504 23.3477 59.8776 23.2749 59.7878 23.2749Z" fill="white"/>
<path d="M56.5347 27.8847H52.3603V23.4375C52.3603 23.4162 52.3561 23.395 52.3479 23.3753C52.3397 23.3556 52.3277 23.3376 52.3126 23.3225C52.2975 23.3074 52.2796 23.2955 52.2599 23.2873C52.2401 23.2791 52.219 23.2749 52.1976 23.2749H50.8965C50.8533 23.2749 50.812 23.292 50.7815 23.3225C50.751 23.353 50.7338 23.3944 50.7338 23.4375V27.8847H49.2701C49.2269 27.8847 49.1856 27.9019 49.1551 27.9324C49.1246 27.9629 49.1074 28.0042 49.1074 28.0474V29.3485C49.1074 29.3916 49.1246 29.433 49.1551 29.4635C49.1856 29.494 49.2269 29.5111 49.2701 29.5111H50.7338V33.955C50.7338 33.9982 50.751 34.0395 50.7815 34.07C50.812 34.1005 50.8533 34.1177 50.8965 34.1177H52.1976C52.219 34.1177 52.2401 34.1135 52.2599 34.1053C52.2796 34.0971 52.2975 34.0852 52.3126 34.0701C52.3277 34.055 52.3397 34.037 52.3479 34.0173C52.3561 33.9976 52.3603 33.9764 52.3603 33.955V29.5111H56.5347C56.5561 29.5111 56.5772 29.5069 56.597 29.4988C56.6167 29.4906 56.6346 29.4786 56.6497 29.4635C56.6648 29.4484 56.6768 29.4305 56.685 29.4107C56.6932 29.391 56.6974 29.3699 56.6974 29.3485V28.0474C56.6974 28.026 56.6932 28.0049 56.685 27.9851C56.6768 27.9654 56.6648 27.9475 56.6497 27.9324C56.6346 27.9173 56.6167 27.9053 56.597 27.8971C56.5772 27.8889 56.5561 27.8847 56.5347 27.8847Z" fill="white"/>
<path d="M9.51621 29.5035H11.3203C11.3634 29.5035 11.4048 29.4864 11.4353 29.4559C11.4658 29.4254 11.4829 29.384 11.4829 29.3409V28.0397C11.4829 27.9966 11.4658 27.9552 11.4353 27.9247C11.4048 27.8942 11.3634 27.8771 11.3203 27.8771H8.79211L6.80033 23.4036C6.78327 23.3653 6.75549 23.3327 6.72033 23.3099C6.68517 23.2871 6.64414 23.2749 6.60222 23.2749H4.97875C4.93683 23.2749 4.8958 23.2871 4.86064 23.3099C4.82548 23.3327 4.7977 23.3653 4.78064 23.4036L2.78892 27.8771H0.260664C0.217529 27.8771 0.17616 27.8942 0.145659 27.9247C0.115158 27.9552 0.0980225 27.9966 0.0980225 28.0397V29.3409C0.0980225 29.384 0.115158 29.4254 0.145659 29.4559C0.17616 29.4864 0.217529 29.5035 0.260664 29.5035H2.06476L0.112284 33.8889C0.101258 33.9136 0.0965962 33.9408 0.0987234 33.9678C0.100851 33.9948 0.109699 34.0209 0.124464 34.0436C0.139229 34.0664 0.159443 34.085 0.183268 34.098C0.207092 34.1109 0.233772 34.1177 0.260881 34.1177H1.71285C1.75477 34.1177 1.7958 34.1055 1.83096 34.0827C1.86612 34.0599 1.89391 34.0273 1.91096 33.989L5.79049 25.2755L9.67001 33.989C9.68706 34.0273 9.71485 34.0599 9.75001 34.0827C9.78517 34.1055 9.8262 34.1177 9.86813 34.1177H11.3201C11.3472 34.1177 11.3739 34.1109 11.3977 34.098C11.4216 34.085 11.4418 34.0664 11.4565 34.0436C11.4713 34.0209 11.4801 33.9948 11.4823 33.9678C11.4844 33.9408 11.4797 33.9137 11.4687 33.8889L9.51621 29.5035Z" fill="white"/>
<path d="M46.4266 25.6752C46.1257 24.9635 45.6217 24.3563 44.9777 23.9294C44.3336 23.5025 43.5781 23.2749 42.8054 23.2749L38.2243 23.2749C38.1812 23.2749 38.1398 23.292 38.1093 23.3225C38.0788 23.353 38.0617 23.3944 38.0616 23.4375V24.7387C38.0616 24.7818 38.0788 24.8232 38.1093 24.8537C38.1398 24.8842 38.1812 24.9013 38.2243 24.9013H42.8054C43.108 24.9012 43.4076 24.9608 43.6872 25.0765C43.9668 25.1923 44.2208 25.362 44.4348 25.576C44.6488 25.7899 44.8185 26.044 44.9343 26.3236C45.05 26.6031 45.1096 26.9028 45.1095 27.2054V27.2054C45.1096 27.508 45.05 27.8077 44.9343 28.0873C44.8185 28.3669 44.6488 28.6209 44.4348 28.8349C44.2208 29.0489 43.9668 29.2186 43.6872 29.3343C43.4076 29.4501 43.108 29.5096 42.8054 29.5095L38.2243 29.5095C38.1812 29.5095 38.1398 29.5266 38.1093 29.5571C38.0788 29.5876 38.0617 29.629 38.0616 29.6721V33.955C38.0616 33.9982 38.0788 34.0395 38.1093 34.0701C38.1398 34.1006 38.1812 34.1177 38.2243 34.1177H39.5254C39.5468 34.1177 39.5679 34.1135 39.5877 34.1053C39.6074 34.0971 39.6253 34.0852 39.6404 34.0701C39.6555 34.055 39.6675 34.037 39.6757 34.0173C39.6839 33.9976 39.6881 33.9764 39.6881 33.955V31.1359L42.8054 31.1359C43.3216 31.136 43.8327 31.0344 44.3096 30.8369C44.7865 30.6395 45.2199 30.3499 45.5849 29.9849C45.9499 29.6199 46.2394 29.1866 46.4369 28.7097C46.6343 28.2328 46.7359 27.7216 46.7358 27.2054L46.7359 27.2054C46.7364 26.6798 46.6312 26.1594 46.4266 25.6752Z" fill="white"/>
<path d="M103.309 29.4036C103.748 28.7546 103.982 27.9889 103.981 27.2055L103.981 27.2054C103.981 26.6892 103.88 26.1781 103.682 25.7012C103.485 25.2242 103.195 24.7909 102.83 24.4259C102.465 24.0609 102.032 23.7714 101.555 23.5739C101.078 23.3764 100.567 23.2748 100.051 23.275L95.4695 23.2749C95.4264 23.2749 95.385 23.2921 95.3545 23.3226C95.324 23.3531 95.3069 23.3944 95.3069 23.4375V24.7387C95.3069 24.7818 95.324 24.8232 95.3545 24.8537C95.385 24.8842 95.4264 24.9013 95.4695 24.9013H100.051C100.353 24.9012 100.653 24.9608 100.932 25.0765C101.212 25.1923 101.466 25.362 101.68 25.576C101.894 25.7899 102.064 26.044 102.179 26.3236C102.295 26.6032 102.355 26.9028 102.355 27.2054V27.2055C102.355 27.5081 102.295 27.8077 102.179 28.0873C102.064 28.3669 101.894 28.6209 101.68 28.8349C101.466 29.0489 101.212 29.2186 100.932 29.3344C100.653 29.4501 100.353 29.5096 100.051 29.5096L95.4695 29.5095C95.4264 29.5095 95.385 29.5267 95.3545 29.5572C95.324 29.5877 95.3069 29.629 95.3069 29.6721V33.955C95.3069 33.9982 95.324 34.0395 95.3545 34.07C95.385 34.1005 95.4264 34.1177 95.4695 34.1177H96.7707C96.792 34.1177 96.8132 34.1135 96.8329 34.1053C96.8526 34.0971 96.8706 34.0852 96.8857 34.0701C96.9008 34.055 96.9128 34.037 96.9209 34.0173C96.9291 33.9976 96.9333 33.9764 96.9333 33.955V31.136L100.051 31.1359C100.323 31.1359 100.594 31.1078 100.86 31.0518L102.183 34.0212C102.195 34.0499 102.216 34.0743 102.243 34.0915C102.269 34.1086 102.3 34.1177 102.331 34.1177H103.818C103.845 34.1177 103.872 34.1109 103.896 34.098C103.92 34.0851 103.94 34.0664 103.955 34.0436C103.969 34.0209 103.978 33.9948 103.98 33.9678C103.983 33.9408 103.978 33.9137 103.967 33.8889L102.395 30.3579C102.751 30.0935 103.06 29.7709 103.309 29.4036Z" fill="white"/>
<path d="M79.6244 23.2749H71.8175C71.7744 23.2749 71.733 23.292 71.7025 23.3225C71.672 23.353 71.6549 23.3944 71.6549 23.4375V24.7387C71.6549 24.7818 71.672 24.8232 71.7025 24.8537C71.733 24.8842 71.7744 24.9013 71.8175 24.9013H77.3699L75.2102 27.6572C75.1939 27.678 75.1837 27.703 75.1809 27.7293C75.1781 27.7556 75.1828 27.7821 75.1944 27.8059C75.2059 27.8297 75.224 27.8497 75.2464 27.8637C75.2688 27.8777 75.2947 27.8852 75.3211 27.8852H76.9623C77.0116 27.8852 77.0603 27.8739 77.1046 27.8523C77.149 27.8307 77.1879 27.7993 77.2183 27.7605L79.7177 24.5711C79.7626 24.5138 79.787 24.4432 79.787 24.3704V23.4375C79.787 23.3944 79.7699 23.353 79.7394 23.3225C79.7089 23.292 79.6675 23.2749 79.6244 23.2749Z" fill="white"/>
<path d="M79.6244 32.4909H73.511L75.6675 29.7391C75.6838 29.7183 75.6939 29.6934 75.6967 29.6671C75.6995 29.6408 75.6949 29.6143 75.6833 29.5905C75.6717 29.5667 75.6537 29.5467 75.6313 29.5327C75.6089 29.5187 75.583 29.5112 75.5565 29.5112H73.9154C73.8661 29.5112 73.8174 29.5225 73.773 29.544C73.7286 29.5656 73.6898 29.597 73.6593 29.6359L71.182 32.7972C71.1372 32.8544 71.1128 32.9251 71.1128 32.9978V33.9547C71.1128 33.9978 71.1299 34.0392 71.1604 34.0697C71.1909 34.1002 71.2323 34.1174 71.2754 34.1174H79.6244C79.6675 34.1174 79.7089 34.1002 79.7394 34.0697C79.7699 34.0392 79.787 33.9978 79.787 33.9547V32.6536C79.787 32.6104 79.7699 32.5691 79.7394 32.5386C79.7089 32.5081 79.6675 32.4909 79.6244 32.4909Z" fill="white"/>
<path d="M115.718 29.499C115.679 29.4993 115.642 29.5129 115.613 29.5377C115.584 29.5624 115.564 29.5966 115.558 29.6344C115.512 29.8882 115.444 30.1375 115.354 30.3793C115.112 31.0531 114.668 31.6357 114.082 32.0473C113.504 32.4406 112.819 32.6472 112.119 32.6393C111.648 32.6421 111.181 32.5505 110.746 32.37C110.11 32.1018 109.574 31.6406 109.213 31.0515C108.949 30.6165 108.769 30.1358 108.682 29.6342C108.675 29.5966 108.656 29.5624 108.626 29.5377C108.597 29.513 108.56 29.4993 108.522 29.499H107.202C107.179 29.499 107.156 29.5039 107.135 29.5134C107.114 29.523 107.095 29.537 107.08 29.5544C107.064 29.5719 107.053 29.5924 107.046 29.6147C107.039 29.6369 107.038 29.6603 107.041 29.6834C107.102 30.1161 107.209 30.5411 107.361 30.9507C107.71 31.93 108.356 32.7758 109.209 33.3701C110.062 33.9644 111.08 34.2775 112.119 34.2657C112.807 34.2684 113.488 34.1337 114.122 33.8694C115.069 33.4703 115.868 32.7851 116.406 31.9098C116.821 31.2304 117.091 30.4724 117.198 29.6835C117.201 29.6605 117.199 29.637 117.192 29.6148C117.186 29.5925 117.174 29.572 117.159 29.5545C117.144 29.537 117.125 29.523 117.104 29.5135C117.082 29.5039 117.059 29.499 117.036 29.499L115.718 29.499Z" fill="white"/>
<path d="M108.519 27.8729C108.557 27.8727 108.594 27.859 108.624 27.8342C108.653 27.8094 108.672 27.7751 108.679 27.7373C108.725 27.4807 108.793 27.2287 108.884 26.9844C109.126 26.3106 109.57 25.728 110.156 25.3164C110.734 24.9231 111.42 24.7165 112.119 24.7244C112.59 24.7216 113.057 24.8132 113.492 24.9937C114.128 25.2619 114.664 25.7231 115.025 26.3122C115.29 26.7495 115.471 27.2331 115.558 27.7374C115.564 27.7752 115.584 27.8094 115.613 27.8342C115.642 27.8589 115.679 27.8726 115.718 27.8729H117.037C117.06 27.873 117.083 27.8681 117.104 27.8585C117.125 27.849 117.144 27.835 117.16 27.8176C117.175 27.8001 117.186 27.7796 117.193 27.7574C117.2 27.7352 117.202 27.7118 117.199 27.6888C117.138 27.2531 117.03 26.8253 116.877 26.4129C116.528 25.4337 115.882 24.5879 115.029 23.9936C114.176 23.3993 113.159 23.0862 112.119 23.098C111.432 23.0953 110.75 23.23 110.116 23.4943C109.169 23.8934 108.37 24.5785 107.832 25.4538C107.416 26.1358 107.146 26.8968 107.039 27.6886C107.036 27.7116 107.038 27.7351 107.045 27.7573C107.051 27.7795 107.063 27.8001 107.078 27.8175C107.093 27.835 107.112 27.8489 107.133 27.8585C107.155 27.8681 107.178 27.873 107.201 27.8729L108.519 27.8729Z" fill="white"/>
<path d="M15.499 43.0262H16.019V41.4907H17.5297V41.0447H16.019V39.9883H17.6528V39.5396H15.499V43.0262Z" fill="white"/>
<path d="M26.631 39.6764C26.3862 39.5457 26.1131 39.477 25.8356 39.4766C25.5581 39.4761 25.2848 39.5437 25.0395 39.6736C24.8008 39.8126 24.6103 40.0212 24.4936 40.2716C24.229 40.9184 24.229 41.6432 24.4936 42.29C24.6109 42.5417 24.8011 42.7524 25.0395 42.8947C25.2811 43.0323 25.5553 43.1023 25.8332 43.0973C26.112 43.1025 26.3871 43.034 26.631 42.8989C26.8707 42.7589 27.0617 42.5488 27.1783 42.2968C27.4429 41.6505 27.4429 40.9261 27.1783 40.2797C27.0615 40.0276 26.8706 39.8171 26.631 39.6764ZM26.568 42.279C26.4786 42.3861 26.3667 42.4722 26.2404 42.5313C26.114 42.5904 25.9762 42.6211 25.8366 42.6211C25.6971 42.6211 25.5593 42.5904 25.4329 42.5313C25.3065 42.4722 25.1947 42.3861 25.1052 42.279C24.9246 42.0509 24.8343 41.7198 24.8343 41.2855C24.8343 40.8568 24.9246 40.5257 25.1052 40.2921C25.1932 40.1829 25.3046 40.0947 25.4311 40.0341C25.5576 39.9735 25.696 39.9419 25.8363 39.9418C25.9766 39.9417 26.1151 39.9729 26.2417 40.0333C26.3683 40.0937 26.4798 40.1817 26.568 40.2908C26.7477 40.5234 26.8376 40.8531 26.8376 41.28C26.8376 41.7179 26.7478 42.0509 26.568 42.279Z" fill="white"/>
<path d="M36.4429 41.7426C36.4429 42.0528 36.3653 42.2763 36.2103 42.4132C36.0354 42.5463 35.8218 42.6184 35.602 42.6184C35.3823 42.6184 35.1686 42.5463 34.9938 42.4132C34.8378 42.2763 34.7598 42.0528 34.7598 41.7426V39.5396H34.2398V41.7426C34.2316 41.9994 34.2886 42.254 34.4054 42.4829C34.5118 42.6806 34.6766 42.8407 34.8775 42.9413C35.1056 43.0441 35.3531 43.0973 35.6034 43.0973C35.8537 43.0973 36.1011 43.0441 36.3293 42.9413C36.5293 42.8406 36.6933 42.6805 36.7987 42.4829C36.9145 42.2538 36.971 41.9992 36.9629 41.7426V39.5396H36.4429V41.7426Z" fill="white"/>
<path d="M46.2647 42.1776L44.6173 39.5396H44.0233V43.0262H44.5433V40.3328L46.2319 43.0262H46.7848V39.5396H46.2647V42.1776Z" fill="white"/>
<path d="M55.8764 39.7544C55.5916 39.6057 55.2738 39.5318 54.9527 39.5396H53.8854V43.0262H54.9527C55.274 43.034 55.5919 42.9596 55.8764 42.8101C56.1341 42.67 56.3463 42.4592 56.488 42.2024C56.632 41.9168 56.707 41.6014 56.707 41.2815C56.707 40.9617 56.632 40.6463 56.488 40.3607C56.3465 40.1041 56.1342 39.8937 55.8764 39.7544ZM56.0036 41.9424C55.9119 42.1304 55.7692 42.2888 55.5917 42.3995C55.3989 42.5148 55.1773 42.5727 54.9527 42.5664H54.4054V40.0075H54.9527C55.1769 40.0013 55.3983 40.0582 55.5917 40.1717C55.7691 40.2807 55.912 40.4378 56.0036 40.6247C56.0992 40.8312 56.1487 41.056 56.1487 41.2836C56.1487 41.5111 56.0992 41.7359 56.0036 41.9424Z" fill="white"/>
<path d="M64.3392 39.5396L63.146 43.0261H63.6934L63.9752 42.1942H65.3217L65.5927 43.0261H66.14L64.9824 39.5396H64.3392ZM64.1066 41.7946L64.6512 40.1662L65.1931 41.7946H64.1066Z" fill="white"/>
<path d="M72.144 39.9883H73.2579V43.0262H73.7778V39.9883H74.8918V39.5396H72.144V39.9883Z" fill="white"/>
<path d="M82.1358 39.5396H81.6158V43.0261H82.1358V39.5396Z" fill="white"/>
<path d="M91.3896 39.6764C91.1448 39.5457 90.8717 39.477 90.5942 39.4766C90.3168 39.4761 90.0434 39.5437 89.7982 39.6736C89.5594 39.8126 89.3689 40.0212 89.2521 40.2716C88.9876 40.9184 88.9876 41.6432 89.2521 42.29C89.3695 42.5417 89.5597 42.7524 89.7982 42.8947C90.0397 43.0324 90.3139 43.1023 90.5919 43.0973C90.8706 43.1025 91.1457 43.034 91.3896 42.8989C91.6293 42.7589 91.8203 42.5487 91.9369 42.2968C92.2015 41.6505 92.2015 40.9261 91.9369 40.2797C91.8201 40.0276 91.6292 39.8171 91.3896 39.6764ZM91.3266 42.279C91.2372 42.3861 91.1253 42.4722 90.9989 42.5313C90.8726 42.5904 90.7348 42.6211 90.5952 42.6211C90.4557 42.6211 90.3179 42.5904 90.1915 42.5313C90.0651 42.4722 89.9533 42.3861 89.8638 42.279C89.6832 42.0509 89.5929 41.7198 89.5929 41.2855C89.5929 40.8568 89.6832 40.5257 89.8638 40.2921C89.9518 40.1829 90.0631 40.0947 90.1897 40.0341C90.3162 39.9735 90.4546 39.9419 90.5949 39.9418C90.7352 39.9417 90.8737 39.9729 91.0003 40.0333C91.1269 40.0937 91.2384 40.1817 91.3266 40.2908C91.5063 40.5234 91.5962 40.8531 91.5962 41.28C91.5962 41.7179 91.5064 42.0509 91.3266 42.279Z" fill="white"/>
<path d="M101.28 39.5396V42.1776L99.6319 39.5396H99.0381V43.0262H99.5581V40.3328L101.247 43.0262H101.8V39.5396H101.28Z" fill="white"/>
</svg>
