<svg width="97" height="96" viewBox="0 0 97 96" fill="none" xmlns="http://www.w3.org/2000/svg">
<circle cx="48.5" cy="48" r="32.5" stroke="#415566" stroke-dasharray="2 2"/>
<circle cx="48.5" cy="48" r="23.5" stroke="#1B2B38"/>
<path d="M15 18.5H82V63.5H15V18.5Z" fill="#111B24" stroke="white" stroke-linejoin="bevel"/>
<path d="M19 22.5H78V57.5H19V22.5Z" fill="#111B24" stroke="white" stroke-linejoin="bevel"/>
<path d="M19.5 60.5H21.5" stroke="white" stroke-linejoin="bevel"/>
<path fill-rule="evenodd" clip-rule="evenodd" d="M26.9692 52.3538C28.1272 47.7215 32.7916 44.8786 37.4396 45.9723C40.2334 46.6296 42.392 48.5591 43.4518 51H52.6634C53.7232 48.5591 55.8819 46.6296 58.6757 45.9723C63.3236 44.8786 67.988 47.7215 69.146 52.3538L73.9103 71.411C75.0914 76.1352 72.1797 80.9125 67.4396 82.0278C62.7916 83.1214 58.1272 80.2786 56.9692 75.6463L56.3076 73H39.8076L39.1461 75.6463C37.988 80.2786 33.3236 83.1214 28.6757 82.0278C23.9355 80.9125 21.0238 76.1352 22.2049 71.411L26.9692 52.3538Z" fill="#111B24"/>
<path fill-rule="evenodd" clip-rule="evenodd" d="M26.9692 52.3538C28.1272 47.7215 32.7916 44.8786 37.4396 45.9723C40.2334 46.6296 42.392 48.5591 43.4518 51H52.6634C53.7232 48.5591 55.8819 46.6296 58.6757 45.9723C63.3236 44.8786 67.988 47.7215 69.146 52.3538L73.9103 71.411C75.0914 76.1352 72.1797 80.9125 67.4396 82.0278C62.7916 83.1214 58.1272 80.2786 56.9692 75.6463L56.3076 73H39.8076L39.1461 75.6463C37.988 80.2786 33.3236 83.1214 28.6757 82.0278C23.9355 80.9125 21.0238 76.1352 22.2049 71.411L26.9692 52.3538Z" fill="#00EAC7" fill-opacity="0.06"/>
<path d="M37.4396 45.9723L37.2105 46.9457L37.4396 45.9723ZM26.9692 52.3538L27.9393 52.5963L26.9692 52.3538ZM43.4518 51L42.5346 51.3983L43.4518 52V51ZM52.6634 51V52L53.5806 51.3983L52.6634 51ZM58.6757 45.9723L58.4466 44.9988V44.9988L58.6757 45.9723ZM69.146 52.3538L68.1759 52.5963V52.5963L69.146 52.3538ZM73.9103 71.411L74.8805 71.1684V71.1684L73.9103 71.411ZM67.4396 82.0278L67.6686 83.0012V83.0012L67.4396 82.0278ZM56.9692 75.6463L57.9393 75.4037L56.9692 75.6463ZM56.3076 73L57.2778 72.7575L56.3076 72V73ZM39.8076 73V72L38.8375 72.7575L39.8076 73ZM39.1461 75.6463L40.1162 75.8888L39.1461 75.6463ZM28.6757 82.0278L28.4466 83.0012H28.4466L28.6757 82.0278ZM22.2049 71.411L21.2347 71.1684L22.2049 71.411ZM37.6686 44.9988C32.4883 43.78 27.2897 46.9484 25.999 52.1113L27.9393 52.5963C28.9648 48.4946 33.0949 45.9773 37.2105 46.9457L37.6686 44.9988ZM44.3691 50.6018C43.189 47.8839 40.783 45.7316 37.6686 44.9988L37.2105 46.9457C39.6837 47.5276 41.5949 49.2343 42.5346 51.3983L44.3691 50.6018ZM43.4518 52H52.6634V50H43.4518V52ZM53.5806 51.3983C54.5203 49.2343 56.4315 47.5276 58.9047 46.9457L58.4466 44.9988C55.3322 45.7316 52.9262 47.8839 51.7461 50.6018L53.5806 51.3983ZM58.9047 46.9457C63.0203 45.9773 67.1505 48.4946 68.1759 52.5963L70.1162 52.1113C68.8255 46.9484 63.6269 43.78 58.4466 44.9988L58.9047 46.9457ZM68.1759 52.5963L72.9402 71.6535L74.8805 71.1684L70.1162 52.1113L68.1759 52.5963ZM72.9402 71.6535C73.986 75.8366 71.4078 80.0668 67.2105 81.0544L67.6686 83.0012C72.9516 81.7582 76.1968 76.4337 74.8805 71.1684L72.9402 71.6535ZM67.2105 81.0544C63.0949 82.0228 58.9648 79.5055 57.9393 75.4037L55.999 75.8888C57.2897 81.0517 62.4883 84.2201 67.6686 83.0012L67.2105 81.0544ZM57.9393 75.4037L57.2778 72.7575L55.3375 73.2426L55.999 75.8888L57.9393 75.4037ZM56.3076 72H39.8076V74H56.3076V72ZM40.1162 75.8888L40.7778 73.2426L38.8375 72.7575L38.1759 75.4037L40.1162 75.8888ZM28.4466 83.0012C33.6269 84.2201 38.8255 81.0517 40.1162 75.8888L38.1759 75.4037C37.1505 79.5055 33.0203 82.0228 28.9047 81.0544L28.4466 83.0012ZM21.2347 71.1684C19.9184 76.4337 23.1636 81.7582 28.4466 83.0012L28.9047 81.0544C24.7075 80.0668 22.1292 75.8366 23.175 71.6535L21.2347 71.1684ZM25.999 52.1113L21.2347 71.1684L23.175 71.6535L27.9393 52.5963L25.999 52.1113Z" fill="#00EAC7"/>
<circle cx="54.5" cy="62" r="1.5" stroke="#00EAC7" stroke-width="0.75" stroke-linejoin="bevel"/>
<circle cx="62.5" cy="62" r="1.5" stroke="#00EAC7" stroke-width="0.75" stroke-linejoin="bevel"/>
<circle cx="58.5" cy="66" r="1.5" transform="rotate(-90 58.5 66)" stroke="#00EAC7" stroke-width="0.75" stroke-linejoin="bevel"/>
<circle cx="58.5" cy="58" r="1.5" transform="rotate(-90 58.5 58)" stroke="#00EAC7" stroke-width="0.75" stroke-linejoin="bevel"/>
<path d="M37 56.5H40V60.5H44V63.5H40V67.5H37V63.5H33V60.5H37V56.5Z" stroke="#00EAC7" stroke-width="0.75" stroke-linejoin="bevel"/>
<path d="M16.9999 83.5L12.9999 83.5L12.9999 79.5" stroke="#1B2B38" stroke-linecap="square"/>
<path d="M19.9999 80.5L15.9999 80.5L15.9999 76.5" stroke="#1B2B38" stroke-linecap="square"/>
<path d="M81.4999 78L84.3531 80.0729L83.2633 83.4271H79.7366L78.6468 80.0729L81.4999 78Z" fill="#1B2B38"/>
</svg>
