<svg width="96" height="96" viewBox="0 0 96 96" fill="none" xmlns="http://www.w3.org/2000/svg">
<circle cx="48" cy="48" r="32.5" stroke="#415566" stroke-dasharray="2 2"/>
<circle cx="48" cy="48" r="23.5" stroke="#1B2B38"/>
<path d="M71.6747 72.5106C73.8024 71.234 72.9513 69.5319 70.3981 69.9574C67.8449 70.3829 58.4832 72.0851 58.4832 72.0851C58.4832 72.0851 58.4832 69.9574 56.3556 69.5319C55.3625 69.3333 44.8662 69.1063 44.8662 69.1063C41.7331 66.8277 38.9087 66.5532 36.3556 66.5532C33.8024 66.5532 31.5 67.5 31.5 67.5V63.5L20.5 63.5V80.5H31.5V77.5L33.8024 76.7659C33.8024 76.7659 42.4732 82.8147 48.696 84C58.0577 82.2978 71.6747 72.5106 71.6747 72.5106Z" fill="#111B24" stroke="white" stroke-linejoin="bevel"/>
<path d="M58.4832 72.085C58.4832 74.2126 55.079 74.6382 55.079 74.6382L44.4407 75.0637" stroke="white" stroke-linejoin="bevel"/>
<path d="M31.5 77.5V67.5" stroke="white" stroke-linejoin="bevel"/>
<circle cx="26" cy="76" r="1.5" stroke="white" stroke-linejoin="bevel"/>
<circle cx="48" cy="38" r="23" fill="#111B24"/>
<circle cx="48" cy="38" r="23" fill="#00EAC7" fill-opacity="0.06"/>
<circle cx="48" cy="38" r="23" stroke="#00EAC7" stroke-width="2.1" stroke-linejoin="bevel"/>
<circle cx="48" cy="38" r="19.5" stroke="#00EAC7" stroke-linejoin="bevel"/>
<mask id="path-9-outside-1_1640_23894" maskUnits="userSpaceOnUse" x="33.95" y="23" width="28" height="26" fill="black">
<rect fill="white" x="33.95" y="23" width="28" height="26"/>
<path d="M55.7964 37.7864H59.79C59.8373 37.7865 59.8842 37.7773 59.9279 37.7592C59.9716 37.7412 60.0114 37.7146 60.0448 37.6812C60.0783 37.6477 60.1048 37.608 60.1228 37.5643C60.1409 37.5206 60.1501 37.4737 60.15 37.4264V34.5464C60.15 34.4509 60.1121 34.3594 60.0446 34.2918C59.9771 34.2243 59.8855 34.1864 59.79 34.1864H54.194L49.7852 24.2848C49.7477 24.2005 49.6867 24.1289 49.6095 24.0783C49.5323 24.0278 49.4423 24.0006 49.35 24H45.75C45.6572 24 45.5664 24.0269 45.4886 24.0775C45.4108 24.128 45.3493 24.2 45.3116 24.2848L40.906 34.1864H35.31C35.2145 34.1864 35.123 34.2243 35.0555 34.2918C34.9879 34.3594 34.95 34.4509 34.95 34.5464V37.4264C34.9499 37.4737 34.9591 37.5206 34.9772 37.5643C34.9953 37.608 35.0218 37.6477 35.0552 37.6812C35.0887 37.7146 35.1284 37.7412 35.1721 37.7592C35.2158 37.7773 35.2627 37.7865 35.31 37.7864H39.3036L34.9836 47.4936C34.9593 47.5483 34.9489 47.6082 34.9536 47.6678C34.9582 47.7275 34.9776 47.7851 35.0101 47.8354C35.0426 47.8857 35.0871 47.927 35.1396 47.9558C35.1921 47.9845 35.251 47.9997 35.3108 48H38.5244C38.6172 48 38.708 47.9731 38.7858 47.9225C38.8636 47.872 38.9251 47.8 38.9628 47.7152L47.55 28.428L56.1372 47.7152C56.1749 47.8 56.2364 47.872 56.3142 47.9225C56.392 47.9731 56.4828 48 56.5756 48H59.7892C59.8493 48.0001 59.9084 47.9852 59.9612 47.9566C60.014 47.9281 60.0589 47.8867 60.0916 47.8364C60.1244 47.786 60.1441 47.7283 60.1488 47.6684C60.1535 47.6086 60.1432 47.5485 60.1188 47.4936L55.7964 37.7864Z"/>
</mask>
<path d="M55.7964 37.7864V36.7864L54.8829 38.1932L55.7964 37.7864ZM59.79 37.7864L59.7922 36.7864H59.79V37.7864ZM60.15 37.4264H59.15L59.15 37.4286L60.15 37.4264ZM60.15 34.5464H61.15H60.15ZM54.194 34.1864L53.2805 34.5932L54.194 35.1864V34.1864ZM49.7852 24.2848L48.8716 24.6914L48.8717 24.6916L49.7852 24.2848ZM49.35 24L49.3569 23H49.35V24ZM45.75 24V23H45.7498L45.75 24ZM45.3116 24.2848L44.398 23.8781L44.398 23.8783L45.3116 24.2848ZM40.906 34.1864V35.1864L41.8197 34.5929L40.906 34.1864ZM35.31 34.1864V35.1864V34.1864ZM34.95 37.4264L35.95 37.4286V37.4264H34.95ZM35.31 37.7864V36.7864L35.3078 36.7864L35.31 37.7864ZM39.3036 37.7864L40.2172 38.193L39.3036 36.7864V37.7864ZM34.9836 47.4936L35.8972 47.9003L35.8972 47.9002L34.9836 47.4936ZM35.3108 48L35.3061 49H35.3108V48ZM38.5244 48V49H38.5247L38.5244 48ZM38.9628 47.7152L38.0493 47.3085L38.0492 47.3085L38.9628 47.7152ZM47.55 28.428L48.4636 28.0213H46.6365L47.55 28.428ZM56.1372 47.7152L57.0508 47.3085L57.0508 47.3085L56.1372 47.7152ZM56.5756 48L56.5754 49H56.5756V48ZM59.7892 48L59.7912 47H59.7892V48ZM60.1188 47.4936L61.0324 47.0869L61.0323 47.0868L60.1188 47.4936ZM55.7964 38.7864H59.79V36.7864H55.7964V38.7864ZM59.7878 38.7864C59.9668 38.7868 60.1441 38.7518 60.3096 38.6835L59.5462 36.8349C59.6242 36.8027 59.7078 36.7862 59.7922 36.7864L59.7878 38.7864ZM60.3096 38.6835C60.475 38.6152 60.6253 38.5149 60.7519 38.3883L59.3377 36.9741C59.3974 36.9144 59.4682 36.8671 59.5462 36.8349L60.3096 38.6835ZM60.7519 38.3883C60.8785 38.2617 60.9788 38.1114 61.0471 37.9459L59.1985 37.1826C59.2307 37.1046 59.278 37.0337 59.3377 36.9741L60.7519 38.3883ZM61.0471 37.9459C61.1155 37.7805 61.1504 37.6032 61.15 37.4242L59.15 37.4286C59.1498 37.3443 59.1663 37.2607 59.1985 37.1826L61.0471 37.9459ZM61.15 37.4264V34.5464H59.15V37.4264H61.15ZM61.15 34.5464C61.15 34.1857 61.0067 33.8398 60.7517 33.5847L59.3375 34.9989C59.2174 34.8789 59.15 34.7161 59.15 34.5464H61.15ZM60.7517 33.5847C60.4966 33.3297 60.1507 33.1864 59.79 33.1864V35.1864C59.6203 35.1864 59.4575 35.119 59.3375 34.9989L60.7517 33.5847ZM59.79 33.1864H54.194V35.1864H59.79V33.1864ZM55.1075 33.7796L50.6987 23.878L48.8717 24.6916L53.2805 34.5932L55.1075 33.7796ZM50.6988 23.8782C50.5831 23.6183 50.3951 23.3973 50.1571 23.2416L49.0619 24.9151C48.9783 24.8604 48.9123 24.7827 48.8716 24.6914L50.6988 23.8782ZM50.1571 23.2416C49.9191 23.0859 49.6413 23.002 49.3569 23L49.3431 25C49.2432 24.9993 49.1456 24.9698 49.0619 24.9151L50.1571 23.2416ZM49.35 23H45.75V25H49.35V23ZM45.7498 23C45.4637 23.0001 45.1838 23.083 44.9439 23.2389L46.0334 24.9161C45.9491 24.9708 45.8508 25 45.7503 25L45.7498 23ZM44.9439 23.2389C44.704 23.3947 44.5144 23.6168 44.398 23.8781L46.2252 24.6915C46.1843 24.7833 46.1177 24.8613 46.0334 24.9161L44.9439 23.2389ZM44.398 23.8783L39.9924 33.7799L41.8197 34.5929L46.2253 24.6913L44.398 23.8783ZM40.906 33.1864H35.31V35.1864H40.906V33.1864ZM35.31 33.1864C34.9493 33.1864 34.6034 33.3297 34.3483 33.5847L35.7626 34.9989C35.6425 35.119 35.4798 35.1864 35.31 35.1864V33.1864ZM34.3483 33.5847C34.0933 33.8398 33.95 34.1857 33.95 34.5464H35.95C35.95 34.7161 35.8826 34.8789 35.7626 34.9989L34.3483 33.5847ZM33.95 34.5464V37.4264H35.95V34.5464H33.95ZM33.95 37.4242C33.9496 37.6032 33.9846 37.7805 34.0529 37.9459L35.9015 37.1826C35.9337 37.2606 35.9502 37.3442 35.95 37.4286L33.95 37.4242ZM34.0529 37.9459C34.1212 38.1114 34.2215 38.2617 34.3481 38.3883L35.7623 36.9741C35.822 37.0338 35.8693 37.1046 35.9015 37.1826L34.0529 37.9459ZM34.3481 38.3883C34.4747 38.5149 34.625 38.6152 34.7905 38.6835L35.5538 36.8349C35.6318 36.8671 35.7026 36.9144 35.7623 36.9741L34.3481 38.3883ZM34.7905 38.6835C34.9559 38.7518 35.1332 38.7868 35.3122 38.7864L35.3078 36.7864C35.3922 36.7862 35.4758 36.8027 35.5538 36.8349L34.7905 38.6835ZM35.31 38.7864H39.3036V36.7864H35.31V38.7864ZM38.39 37.3798L34.07 47.087L35.8972 47.9002L40.2172 38.193L38.39 37.3798ZM34.07 47.0869C33.9781 47.2935 33.9391 47.5197 33.9566 47.7452L35.9506 47.5905C35.9588 47.6966 35.9405 47.8031 35.8972 47.9003L34.07 47.0869ZM33.9566 47.7452C33.9741 47.9706 34.0475 48.1882 34.1702 48.3781L35.8501 47.2927C35.9078 47.382 35.9424 47.4844 35.9506 47.5905L33.9566 47.7452ZM34.1702 48.3781C34.2929 48.568 34.461 48.7243 34.6594 48.8329L35.6198 47.0786C35.7132 47.1297 35.7923 47.2033 35.8501 47.2927L34.1702 48.3781ZM34.6594 48.8329C34.8577 48.9415 35.08 48.9989 35.3061 49L35.3155 47C35.4219 47.0005 35.5265 47.0275 35.6198 47.0786L34.6594 48.8329ZM35.3108 49H38.5244V47H35.3108V49ZM38.5247 49C38.8107 48.9999 39.0907 48.9169 39.3306 48.7611L38.241 47.0839C38.3253 47.0292 38.4237 47 38.5242 47L38.5247 49ZM39.3306 48.7611C39.5705 48.6053 39.76 48.3832 39.8764 48.1219L38.0492 47.3085C38.0901 47.2167 38.1567 47.1387 38.241 47.0839L39.3306 48.7611ZM39.8764 48.1219L48.4636 28.8347L46.6365 28.0213L38.0493 47.3085L39.8764 48.1219ZM46.6365 28.8347L55.2237 48.1219L57.0508 47.3085L48.4636 28.0213L46.6365 28.8347ZM55.2236 48.1219C55.34 48.3832 55.5296 48.6053 55.7695 48.7611L56.859 47.0839C56.9433 47.1387 57.0099 47.2167 57.0508 47.3085L55.2236 48.1219ZM55.7695 48.7611C56.0094 48.9169 56.2893 48.9999 56.5754 49L56.5759 47C56.6764 47 56.7747 47.0292 56.859 47.0839L55.7695 48.7611ZM56.5756 49H59.7892V47H56.5756V49ZM59.7872 49C60.0141 49.0004 60.2375 48.9441 60.4371 48.8362L59.4854 47.0771C59.5793 47.0263 59.6844 46.9998 59.7912 47L59.7872 49ZM60.4371 48.8362C60.6366 48.7282 60.806 48.572 60.9298 48.3819L59.2535 47.2909C59.3118 47.2014 59.3915 47.1279 59.4854 47.0771L60.4371 48.8362ZM60.9298 48.3819C61.0535 48.1917 61.1277 47.9736 61.1457 47.7475L59.1519 47.5894C59.1604 47.483 59.1953 47.3804 59.2535 47.2909L60.9298 48.3819ZM61.1457 47.7475C61.1636 47.5213 61.1247 47.2942 61.0324 47.0869L59.2052 47.9003C59.1618 47.8027 59.1435 47.6959 59.1519 47.5894L61.1457 47.7475ZM61.0323 47.0868L56.7099 37.3796L54.8829 38.1932L59.2053 47.9004L61.0323 47.0868Z" fill="#00EAC7" mask="url(#path-9-outside-1_1640_23894)"/>
<path d="M13 13.5L17.5 17L22 13.5" stroke="#1B2B38" stroke-linecap="square"/>
<path d="M13 16.5L17.5 20L22 16.5" stroke="#1B2B38" stroke-linecap="square"/>
<path d="M78 81C78 81.7956 78.3161 82.5587 78.8787 83.1213C79.4413 83.6839 80.2044 84 81 84C81.7956 84 82.5587 83.6839 83.1213 83.1213C83.6839 82.5587 84 81.7956 84 81L81 81H78Z" fill="#1B2B38"/>
<path d="M84 78C84 77.2043 83.6839 76.4413 83.1213 75.8787C82.5587 75.3161 81.7956 75 81 75C80.2044 75 79.4413 75.3161 78.8787 75.8787C78.3161 76.4413 78 77.2044 78 78L81 78L84 78Z" fill="#1B2B38"/>
</svg>
