<?xml version="1.0" encoding="utf-8"?>
<!-- Generator: Adobe Illustrator 25.4.1, SVG Export Plug-In . SVG Version: 6.00 Build 0)  -->
<svg version="1.1" id="layer" xmlns="http://www.w3.org/2000/svg" xmlns:xlink="http://www.w3.org/1999/xlink" x="0px" y="0px"
	 viewBox="0 0 652 326" style="enable-background:new 0 0 652 326;" xml:space="preserve">
<style type="text/css">
	.st0{opacity:0.84;fill:#FFFFFF;enable-background:new    ;}
	.st1{fill:#FFFFFF;}
</style>
<g>
	<path class="st0" d="M28.9,78h40.5v164.6H28.9V78z"/>
	<g>
		<path class="st0" d="M95.9,242.6V120.2h37v11.4c4.8-4.8,10.1-8.3,16.1-10.7s12.7-3.5,20.2-3.5c13.3,0,23.2,4.2,29.8,12.6
			c6.5,8.4,9.8,21.3,9.8,38.7v73.9h-37v-72.1c0-8.3-1.5-14.3-4.4-18.2c-2.9-3.9-7.5-5.8-13.8-5.8c-7.4,0-12.7,1.8-15.9,5.4
			s-4.7,9.8-4.7,18.6v72.1H95.9z M235.8,242.6v-97H217v-22.4h18.8c-0.2-2.5-0.4-4.3-0.4-5.5c0-1.1-0.1-2.2-0.1-3.1
			c0-13,3.2-22.3,9.5-28.1c6.3-5.7,16.7-8.6,31.1-8.6c3.2,0,6.4,0.2,9.7,0.6c3.3,0.4,6.7,1,10.3,1.8v25.6h-6.2
			c-6.8,0-11.3,0.8-13.5,2.5s-3.3,5-3.3,10v4.7h23v22.4h-23v97h-37.1L235.8,242.6L235.8,242.6z M334.5,181.5c0,11.2,2.6,20,7.7,26.6
			s12,9.8,20.5,9.8c8.6,0,15.4-3.3,20.6-9.9s7.7-15.4,7.7-26.5c0-11.2-2.6-20-7.7-26.6s-12-9.9-20.6-9.9c-8.5,0-15.3,3.3-20.5,10
			C337.1,161.6,334.5,170.5,334.5,181.5 M362.7,246.6c-19.8,0-35.8-6-47.9-17.9s-18.1-27.7-18.1-47.2s6.1-35.2,18.2-47.2
			s28.1-18,47.8-18c20,0,36,6,48.1,17.9c12.1,12,18.2,27.7,18.2,47.3c0,19.5-6.1,35.2-18.3,47.2
			C398.5,240.6,382.5,246.6,362.7,246.6"/>
		<path class="st0" d="M527.1,212.1c13.1,0,23.3-4.5,30.7-13.6c7.3-9.1,11-21.7,11-38s-3.7-28.9-11.1-38.1
			c-7.4-9.1-17.6-13.7-30.6-13.7s-23.1,4.6-30.6,13.8c-7.4,9.2-11.1,21.9-11.1,38s3.7,28.7,11.1,37.8
			C503.9,207.5,514.1,212.1,527.1,212.1 M570.9,236.3c-6.1,3.3-12.9,5.9-20.3,7.6c-7.4,1.7-15.2,2.6-23.5,2.6
			c-25.3,0-45.6-7.8-60.8-23.4c-15.2-15.6-22.8-36.5-22.8-62.6c0-14.3,2.3-27,7-38.3c4.6-11.3,11.6-20.9,20.8-28.9
			c7.4-6.4,15.7-11.2,25.1-14.3c9.3-3.2,19.6-4.8,30.8-4.8c25.3,0,45.5,7.9,60.7,23.6s22.9,36.6,22.9,62.7c0,10.9-1.3,20.8-3.8,29.6
			c-2.5,8.8-6.5,16.8-11.8,24c4.8,4.2,10,7.5,15.6,10s11.7,4,18.1,4.7l-12.4,29.4c-9.4-0.9-17.9-3.2-25.5-6.9
			C583.3,247.6,576.6,242.6,570.9,236.3"/>
		<path class="st1" d="M595.2,214.1c5.3-7.1,9.2-15.1,11.8-24c1.2-4.2,2.1-8.7,2.7-13.4c-14.5,0.7-28.7,1.4-42.8,2.1
			c-1.8,7.8-4.8,14.3-9.1,19.6c-7.3,9.1-17.6,13.6-30.7,13.6c-13,0-23.2-4.6-30.6-13.7c-3.6-4.5-6.4-9.8-8.2-16
			c-14.3,0.6-28.4,1.1-42.3,1.6c3.3,15.5,10.1,28.6,20.4,39.2c15.2,15.6,35.5,23.4,60.8,23.4c8.3,0,16.1-0.9,23.5-2.6
			s14.1-4.3,20.3-7.6c5.7,6.3,12.4,11.3,20.1,15c7.6,3.7,16.2,6,25.5,6.9l12.4-29.4c-6.4-0.7-12.5-2.3-18.1-4.7
			C605.1,221.6,599.9,218.3,595.2,214.1"/>
		<path class="st1" d="M383.3,208c-5.2,6.6-12,9.9-20.6,9.9s-15.4-3.3-20.5-9.8c-4.3-5.5-6.8-12.7-7.5-21.6
			c-12.6,0.1-25.2,0.2-37.8,0.3c1,17.1,7,31.2,17.9,42c12.1,11.9,28.1,17.9,47.9,17.9s35.8-6,48-17.9c11.5-11.3,17.6-26.1,18.2-44.2
			c-12.7,0.4-25.4,0.7-38,1C390.3,194.7,387.8,202.2,383.3,208 M235.8,242.6h37v-55.9c-12.3,0-24.6-0.2-37-0.3L235.8,242.6
			L235.8,242.6z M95.9,242.6h37v-59.1c-12.2-0.5-24.5-1.1-37-1.7V242.6z M171.7,242.6h37v-56.7c-12.3-0.3-24.6-0.6-37-1V242.6z
			 M28.9,242.6h40.5v-62.3c-13.3-0.8-26.8-1.6-40.5-2.6C28.9,177.7,28.9,242.6,28.9,242.6z"/>
	</g>
</g>
</svg>
