<svg width="96" height="96" viewBox="0 0 96 96" fill="none" xmlns="http://www.w3.org/2000/svg">
<circle cx="48" cy="48" r="32.5" stroke="#415566" stroke-dasharray="2 2"/>
<circle cx="48" cy="48" r="23.5" stroke="#1B2B38"/>
<path d="M21 15H61V71H21V15Z" fill="#111B24"/>
<path d="M21 15H61V71H21V15Z" fill="#00EAC7" fill-opacity="0.06"/>
<path d="M21 15H61V71H21V15Z" stroke="#00EAC7" stroke-width="2" stroke-linejoin="bevel"/>
<path d="M30 60.5H42" stroke="#00EAC7" stroke-linejoin="bevel"/>
<path d="M26 60.5H28" stroke="#00EAC7" stroke-linejoin="bevel"/>
<path d="M30 56.5H51" stroke="#00EAC7" stroke-linejoin="bevel"/>
<path d="M26 56.5H28" stroke="#00EAC7" stroke-linejoin="bevel"/>
<path d="M30 52.5H54" stroke="#00EAC7" stroke-linejoin="bevel"/>
<path d="M26 52.5H28" stroke="#00EAC7" stroke-linejoin="bevel"/>
<path d="M30 48.5H51" stroke="#00EAC7" stroke-linejoin="bevel"/>
<path d="M26 48.5H28" stroke="#00EAC7" stroke-linejoin="bevel"/>
<path d="M30 41.5H49" stroke="#00EAC7" stroke-linejoin="bevel"/>
<path d="M26 41.5H28" stroke="#00EAC7" stroke-linejoin="bevel"/>
<path d="M30 37.5H52" stroke="#00EAC7" stroke-linejoin="bevel"/>
<path d="M26 37.5H28" stroke="#00EAC7" stroke-linejoin="bevel"/>
<path d="M30 33.5H56" stroke="#00EAC7" stroke-linejoin="bevel"/>
<path d="M26 33.5H28" stroke="#00EAC7" stroke-linejoin="bevel"/>
<path d="M30 26.5H41" stroke="#00EAC7" stroke-linejoin="bevel"/>
<path d="M26 26.5H28" stroke="#00EAC7" stroke-linejoin="bevel"/>
<path d="M30 22.5L51 22.5" stroke="#00EAC7" stroke-linejoin="bevel"/>
<path d="M26 22.5H28" stroke="#00EAC7" stroke-linejoin="bevel"/>
<circle cx="65" cy="71" r="14.5" fill="#111B24" stroke="white" stroke-linejoin="bevel"/>
<mask id="path-23-outside-1_1807_20180" maskUnits="userSpaceOnUse" x="56.625" y="62" width="17" height="16" fill="black">
<rect fill="white" x="56.625" y="62" width="17" height="16"/>
<path d="M69.7854 71.0421H72.115C72.1426 71.0421 72.1699 71.0367 72.1954 71.0262C72.2209 71.0157 72.2441 71.0002 72.2636 70.9807C72.2831 70.9612 72.2986 70.938 72.3091 70.9125C72.3197 70.887 72.3251 70.8597 72.325 70.8321V69.1521C72.325 69.0964 72.3029 69.043 72.2635 69.0036C72.2241 68.9642 72.1707 68.9421 72.115 68.9421H68.8507L66.2789 63.1661C66.257 63.117 66.2214 63.0752 66.1764 63.0457C66.1314 63.0162 66.0788 63.0004 66.025 63H63.925C63.8709 63 63.8179 63.0157 63.7725 63.0452C63.7271 63.0747 63.6913 63.1167 63.6693 63.1661L61.0993 68.9421H57.835C57.7793 68.9421 57.7259 68.9642 57.6865 69.0036C57.6471 69.043 57.625 69.0964 57.625 69.1521V70.8321C57.6249 70.8597 57.6303 70.887 57.6409 70.9125C57.6514 70.938 57.6669 70.9612 57.6864 70.9807C57.7059 71.0002 57.7291 71.0157 57.7546 71.0262C57.7801 71.0367 57.8074 71.0421 57.835 71.0421H60.1646L57.6446 76.7046C57.6304 76.7365 57.6244 76.7714 57.6271 76.8062C57.6298 76.8411 57.6411 76.8746 57.6601 76.904C57.679 76.9333 57.705 76.9574 57.7356 76.9742C57.7662 76.991 57.8006 76.9998 57.8355 77H59.7101C59.7642 77 59.8171 76.9843 59.8625 76.9548C59.9079 76.9253 59.9438 76.8833 59.9658 76.8339L64.975 65.583L69.9842 76.8339C70.0062 76.8833 70.0421 76.9253 70.0875 76.9548C70.1329 76.9843 70.1858 77 70.2399 77H72.1145C72.1496 77.0001 72.1841 76.9914 72.2149 76.9747C72.2457 76.958 72.2718 76.9339 72.291 76.9046C72.3101 76.8752 72.3215 76.8415 72.3243 76.8066C72.3271 76.7717 72.321 76.7366 72.3068 76.7046L69.7854 71.0421Z"/>
</mask>
<path d="M69.7854 71.0421V70.0421L68.8719 71.4488L69.7854 71.0421ZM72.115 71.0421L72.1172 70.0421H72.115V71.0421ZM72.325 70.8321H71.325L71.325 70.8343L72.325 70.8321ZM72.325 69.1521H73.325H72.325ZM68.8507 68.9421L67.9371 69.3488L68.8507 69.9421V68.9421ZM66.2789 63.1661L65.3653 63.5728L65.3653 63.5729L66.2789 63.1661ZM66.025 63L66.0319 62H66.025V63ZM63.925 63V62H63.9248L63.925 63ZM63.6693 63.1661L62.7557 62.7595L62.7556 62.7596L63.6693 63.1661ZM61.0993 68.9421V69.9421L62.013 69.3486L61.0993 68.9421ZM57.835 68.9421V69.9421V68.9421ZM57.625 70.8321L58.625 70.8343V70.8321H57.625ZM57.835 71.0421V70.0421L57.8328 70.0421L57.835 71.0421ZM60.1646 71.0421L61.0782 71.4487L60.1646 70.0421V71.0421ZM57.6446 76.7046L58.5582 77.1113L58.5582 77.1112L57.6446 76.7046ZM57.8355 77L57.8308 78H57.8355V77ZM59.7101 77V78H59.7103L59.7101 77ZM59.9658 76.8339L59.0523 76.4271L59.0522 76.4272L59.9658 76.8339ZM64.975 65.583L65.8885 65.1763L64.0615 65.1763L64.975 65.583ZM69.9842 76.8339L70.8978 76.4272L70.8977 76.4271L69.9842 76.8339ZM70.2399 77L70.2397 78H70.2399V77ZM72.1145 77L72.1165 76H72.1145V77ZM72.3068 76.7046L73.2204 76.2979L73.2203 76.2978L72.3068 76.7046ZM69.7854 72.0421H72.115V70.0421H69.7854V72.0421ZM72.1128 72.0421C72.2721 72.0424 72.4299 72.0113 72.5771 71.9505L71.8138 70.1019C71.91 70.0622 72.0131 70.0418 72.1172 70.0421L72.1128 72.0421ZM72.5771 71.9505C72.7243 71.8897 72.8581 71.8004 72.9707 71.6878L71.5565 70.2736C71.6301 70.2 71.7176 70.1416 71.8138 70.1019L72.5771 71.9505ZM72.9707 71.6878C73.0834 71.5752 73.1726 71.4414 73.2334 71.2942L71.3848 70.5308C71.4246 70.4346 71.4829 70.3472 71.5565 70.2736L72.9707 71.6878ZM73.2334 71.2942C73.2942 71.1469 73.3254 70.9891 73.325 70.8298L71.325 70.8343C71.3248 70.7302 71.3451 70.6271 71.3848 70.5308L73.2334 71.2942ZM73.325 70.8321V69.1521H71.325V70.8321H73.325ZM73.325 69.1521C73.325 68.8312 73.1975 68.5234 72.9706 68.2965L71.5564 69.7107C71.4082 69.5625 71.325 69.3616 71.325 69.1521H73.325ZM72.9706 68.2965C72.7437 68.0696 72.4359 67.9421 72.115 67.9421V69.9421C71.9055 69.9421 71.7045 69.8588 71.5564 69.7107L72.9706 68.2965ZM72.115 67.9421H68.8507V69.9421H72.115V67.9421ZM69.7642 68.5353L67.1924 62.7594L65.3653 63.5729L67.9371 69.3488L69.7642 68.5353ZM67.1925 62.7595C67.0924 62.5348 66.9298 62.3436 66.724 62.2089L65.6288 63.8825C65.513 63.8067 65.4215 63.6992 65.3653 63.5728L67.1925 62.7595ZM66.724 62.2089C66.5182 62.0743 66.2779 62.0017 66.0319 62L66.0181 64C65.8797 63.999 65.7446 63.9582 65.6288 63.8825L66.724 62.2089ZM66.025 62H63.925V64H66.025V62ZM63.9248 62C63.6773 62.0001 63.4352 62.0718 63.2278 62.2066L64.3173 63.8838C64.2006 63.9596 64.0644 64 63.9252 64L63.9248 62ZM63.2278 62.2066C63.0203 62.3414 62.8563 62.5334 62.7557 62.7595L64.5828 63.5728C64.5262 63.6999 64.434 63.808 64.3173 63.8838L63.2278 62.2066ZM62.7556 62.7596L60.1857 68.5356L62.013 69.3486L64.5829 63.5726L62.7556 62.7596ZM61.0993 67.9421H57.835V69.9421H61.0993V67.9421ZM57.835 67.9421C57.5141 67.9421 57.2063 68.0696 56.9794 68.2965L58.3936 69.7107C58.2455 69.8588 58.0445 69.9421 57.835 69.9421V67.9421ZM56.9794 68.2965C56.7525 68.5234 56.625 68.8312 56.625 69.1521H58.625C58.625 69.3616 58.5418 69.5625 58.3936 69.7107L56.9794 68.2965ZM56.625 69.1521V70.8321H58.625V69.1521H56.625ZM56.625 70.8298C56.6246 70.9891 56.6558 71.1469 56.7166 71.2942L58.5652 70.5308C58.6049 70.6271 58.6252 70.7302 58.625 70.8343L56.625 70.8298ZM56.7166 71.2942C56.7773 71.4414 56.8666 71.5752 56.9793 71.6878L58.3935 70.2736C58.4671 70.3472 58.5254 70.4346 58.5652 70.5308L56.7166 71.2942ZM56.9793 71.6878C57.0919 71.8004 57.2257 71.8897 57.3729 71.9505L58.1362 70.1019C58.2324 70.1416 58.3199 70.2 58.3935 70.2736L56.9793 71.6878ZM57.3729 71.9505C57.5201 72.0113 57.6779 72.0424 57.8372 72.0421L57.8328 70.0421C57.9369 70.0418 58.04 70.0622 58.1362 70.1019L57.3729 71.9505ZM57.835 72.0421H60.1646V70.0421H57.835V72.0421ZM59.251 70.6355L56.731 76.298L58.5582 77.1112L61.0782 71.4487L59.251 70.6355ZM56.731 76.2979C56.6492 76.4817 56.6145 76.683 56.6301 76.8836L58.6241 76.7289C58.6342 76.8599 58.6116 76.9913 58.5582 77.1113L56.731 76.2979ZM56.6301 76.8836C56.6456 77.0842 56.711 77.2777 56.8201 77.4467L58.5 76.3613C58.5713 76.4716 58.6139 76.5979 58.6241 76.7289L56.6301 76.8836ZM56.8201 77.4467C56.9293 77.6156 57.0789 77.7547 57.2554 77.8513L58.2158 76.0971C58.3311 76.1601 58.4287 76.251 58.5 76.3613L56.8201 77.4467ZM57.2554 77.8513C57.4318 77.948 57.6296 77.999 57.8308 78L57.8401 76C57.9715 76.0006 58.1006 76.034 58.2158 76.0971L57.2554 77.8513ZM57.8355 78H59.7101V76H57.8355V78ZM59.7103 78C59.9577 77.9999 60.1998 77.9282 60.4073 77.7934L59.3178 76.1162C59.4345 76.0404 59.5706 76 59.7098 76L59.7103 78ZM60.4073 77.7934C60.6148 77.6586 60.7788 77.4666 60.8794 77.2405L59.0522 76.4272C59.1088 76.3001 59.2011 76.192 59.3178 76.1162L60.4073 77.7934ZM60.8793 77.2406L65.8885 65.9897L64.0615 65.1763L59.0523 76.4271L60.8793 77.2406ZM64.0615 65.9897L69.0707 77.2406L70.8977 76.4271L65.8885 65.1763L64.0615 65.9897ZM69.0706 77.2405C69.1712 77.4666 69.3352 77.6586 69.5427 77.7934L70.6322 76.1162C70.7489 76.192 70.8412 76.3 70.8978 76.4272L69.0706 77.2405ZM69.5427 77.7934C69.7502 77.9282 69.9923 77.9999 70.2397 78L70.2402 76C70.3794 76 70.5155 76.0404 70.6322 76.1162L69.5427 77.7934ZM70.2399 78H72.1145V76H70.2399V78ZM72.1126 78C72.3144 78.0004 72.5132 77.9503 72.6907 77.8542L71.739 76.0952C71.855 76.0325 71.9847 75.9997 72.1165 76L72.1126 78ZM72.6907 77.8542C72.8682 77.7582 73.0189 77.6193 73.1291 77.4501L71.4528 76.3591C71.5247 76.2486 71.6231 76.1579 71.739 76.0952L72.6907 77.8542ZM73.1291 77.4501C73.2392 77.2809 73.3052 77.0868 73.3212 76.8856L71.3274 76.7276C71.3378 76.5962 71.3809 76.4695 71.4528 76.3591L73.1291 77.4501ZM73.3212 76.8856C73.3371 76.6844 73.3025 76.4823 73.2204 76.2979L71.3932 77.1113C71.3396 76.9909 71.317 76.859 71.3274 76.7276L73.3212 76.8856ZM73.2203 76.2978L70.6989 70.6353L68.8719 71.4488L71.3933 77.1114L73.2203 76.2978Z" fill="white" mask="url(#path-23-outside-1_1807_20180)"/>
<path d="M83.713 16.5V20.5H77.713V16.5" stroke="#1B2B38" stroke-linecap="square"/>
<path d="M80.713 17.5V13.5H74.713V17.5" stroke="#1B2B38" stroke-linecap="square"/>
<path fill-rule="evenodd" clip-rule="evenodd" d="M21.5065 84.0065C22.449 83.064 22.449 81.536 21.5065 80.5935C21.0419 80.1289 20.4349 79.8933 19.826 79.8868C19.4188 79.8824 18.9977 79.7912 18.7097 79.5032C18.4218 79.2153 18.3305 78.7942 18.3262 78.387C18.3197 77.7781 18.0841 77.1712 17.6195 76.7065C16.677 75.7641 15.149 75.7641 14.2065 76.7065C13.264 77.649 13.264 79.177 14.2065 80.1195C14.7281 80.6412 15.4292 80.8741 16.111 80.8183C16.4688 80.789 16.8442 80.8611 17.0981 81.115C17.3519 81.3688 17.4241 81.7442 17.3948 82.102C17.339 82.7838 17.5719 83.4849 18.0935 84.0065C19.036 84.9489 20.5641 84.9489 21.5065 84.0065Z" fill="#1B2B38"/>
</svg>
